<svg xmlns="http://www.w3.org/2000/svg" xmlns:xlink="http://www.w3.org/1999/xlink" viewBox="0 0 2837.44 2800"><defs><style>.cls-1{mask:url(#mask);}.cls-2,.cls-4{mix-blend-mode:multiply;}.cls-2{fill:url(#_3);}.cls-3{mask:url(#mask-2);}.cls-4{fill:url(#_2);}.cls-5{fill:url(#linear-gradient);}.cls-6{fill:#bdd0fb;}.cls-7{fill:#7d97f4;}.cls-8{fill:url(#linear-gradient-2);}.cls-9{fill:#91b3fa;}.cls-10,.cls-13,.cls-19,.cls-21,.cls-58{fill:#fff;}.cls-10{opacity:0.5;}.cls-11{fill:url(#linear-gradient-3);}.cls-12{fill:url(#linear-gradient-4);}.cls-13{opacity:0.89;}.cls-14{fill:url(#linear-gradient-5);}.cls-15{fill:url(#linear-gradient-6);}.cls-16{fill:url(#linear-gradient-7);}.cls-17{fill:url(#linear-gradient-8);}.cls-18{fill:url(#linear-gradient-9);}.cls-19{opacity:0.7;}.cls-20{fill:url(#linear-gradient-10);}.cls-22{fill:url(#linear-gradient-11);}.cls-23{fill:url(#linear-gradient-12);}.cls-24{fill:url(#linear-gradient-13);}.cls-25{fill:url(#linear-gradient-14);}.cls-26{fill:url(#linear-gradient-15);}.cls-27{fill:url(#linear-gradient-16);}.cls-28{fill:url(#linear-gradient-17);}.cls-29{fill:url(#linear-gradient-18);}.cls-30{fill:url(#linear-gradient-19);}.cls-31{fill:url(#linear-gradient-20);}.cls-32{fill:url(#linear-gradient-21);}.cls-33{fill:url(#linear-gradient-22);}.cls-34{fill:url(#linear-gradient-23);}.cls-35{fill:url(#linear-gradient-24);}.cls-36{fill:url(#linear-gradient-25);}.cls-37{fill:url(#linear-gradient-26);}.cls-38{fill:url(#linear-gradient-27);}.cls-39{fill:url(#linear-gradient-28);}.cls-40{fill:url(#linear-gradient-29);}.cls-41{fill:url(#linear-gradient-30);}.cls-42{fill:url(#linear-gradient-31);}.cls-43{fill:url(#linear-gradient-32);}.cls-44{fill:url(#linear-gradient-33);}.cls-45{fill:url(#linear-gradient-34);}.cls-46{fill:url(#linear-gradient-35);}.cls-47{fill:url(#linear-gradient-36);}.cls-48{fill:url(#linear-gradient-37);}.cls-49{fill:url(#linear-gradient-38);}.cls-50{fill:url(#linear-gradient-39);}.cls-51{mask:url(#mask-3);}.cls-52{opacity:0.37;fill:url(#_60);}.cls-53{mask:url(#mask-4);}.cls-54{fill:url(#_67);}.cls-55{fill:url(#linear-gradient-40);}.cls-56{fill:url(#linear-gradient-41);}.cls-57{fill:url(#linear-gradient-42);}.cls-58{opacity:0.53;}.cls-59{filter:url(#luminosity-noclip-4);}.cls-60{filter:url(#luminosity-noclip-3);}.cls-61{filter:url(#luminosity-noclip-2);}.cls-62{filter:url(#luminosity-noclip);}</style><filter id="luminosity-noclip" x="2314.02" y="-10047" width="164.98" height="32766" filterUnits="userSpaceOnUse" color-interpolation-filters="sRGB"><feFlood flood-color="#fff" result="bg"/><feBlend in="SourceGraphic" in2="bg"/></filter><mask id="mask" x="2314.02" y="-10047" width="164.98" height="32766" maskUnits="userSpaceOnUse"><g class="cls-62"/></mask><linearGradient id="_3" x1="2350.94" y1="1903.67" x2="2854.16" y2="2525.62" gradientUnits="userSpaceOnUse"><stop offset="0" stop-color="#999"/><stop offset="1" stop-color="gray"/></linearGradient><filter id="luminosity-noclip-2" x="2844.4" y="-10047" width="175.03" height="32766" filterUnits="userSpaceOnUse" color-interpolation-filters="sRGB"><feFlood flood-color="#fff" result="bg"/><feBlend in="SourceGraphic" in2="bg"/></filter><mask id="mask-2" x="2844.4" y="-10047" width="175.03" height="32766" maskUnits="userSpaceOnUse"><g class="cls-61"/></mask><linearGradient id="_2" x1="2775.96" y1="1843.24" x2="3232.2" y2="2176.46" gradientUnits="userSpaceOnUse"><stop offset="0" stop-color="#666"/><stop offset="0.03" stop-color="#4d4d4d"/><stop offset="1" stop-color="#333"/></linearGradient><linearGradient id="linear-gradient" x1="3627.01" y1="4042.28" x2="1133.5" y2="945.49" gradientUnits="userSpaceOnUse"><stop offset="0" stop-color="#dae3fe"/><stop offset="1" stop-color="#e9effd"/></linearGradient><linearGradient id="linear-gradient-2" x1="1651.73" y1="545.62" x2="1583.91" y2="1119.49" gradientUnits="userSpaceOnUse"><stop offset="0" stop-color="#09005d"/><stop offset="1" stop-color="#1a0f91"/></linearGradient><linearGradient id="linear-gradient-3" x1="1542.17" y1="1836.53" x2="1599.4" y2="2932.06" gradientUnits="userSpaceOnUse"><stop offset="0" stop-color="#ff928e"/><stop offset="1" stop-color="#fe7062"/></linearGradient><linearGradient id="linear-gradient-4" x1="2774.53" y1="2420.61" x2="2417.89" y2="2812.11" xlink:href="#linear-gradient-3"/><linearGradient id="linear-gradient-5" x1="1832.16" y1="1716.47" x2="1735.44" y2="1874.28" xlink:href="#linear-gradient-3"/><linearGradient id="linear-gradient-6" x1="870.77" y1="2819.09" x2="972.58" y2="2315.1" gradientTransform="translate(2099.49 109.8) rotate(45)" xlink:href="#linear-gradient-2"/><linearGradient id="linear-gradient-7" x1="2119.87" y1="1006.57" x2="184.17" y2="3553.85" gradientTransform="translate(2099.49 109.8) rotate(45)" xlink:href="#linear-gradient-3"/><linearGradient id="linear-gradient-8" x1="2315.73" y1="3057.53" x2="2331.01" y2="2441.55" gradientTransform="translate(2512.51 -887.32) rotate(45)" xlink:href="#linear-gradient-2"/><linearGradient id="linear-gradient-9" x1="2481.48" y1="1605.43" x2="2250.69" y2="3078.42" gradientTransform="translate(2512.51 -887.32) rotate(45)" xlink:href="#linear-gradient-3"/><linearGradient id="linear-gradient-10" x1="2297.29" y1="1546.11" x2="2154.75" y2="1703.92" xlink:href="#linear-gradient-3"/><linearGradient id="linear-gradient-11" x1="267.41" y1="1907.14" x2="-267.14" y2="2338.23" gradientUnits="userSpaceOnUse"><stop offset="0" stop-color="#febbba"/><stop offset="1" stop-color="#ff928e"/></linearGradient><linearGradient id="linear-gradient-12" x1="1245.96" y1="1216.68" x2="-525.43" y2="1391.32" gradientUnits="userSpaceOnUse"><stop offset="0" stop-color="#4f52ff"/><stop offset="1" stop-color="#4042e2"/></linearGradient><linearGradient id="linear-gradient-13" x1="2719.34" y1="1086.88" x2="-54.5" y2="972.49" xlink:href="#linear-gradient-3"/><linearGradient id="linear-gradient-14" x1="2344.33" y1="2592.26" x2="2361.02" y2="3023.84" xlink:href="#linear-gradient-12"/><linearGradient id="linear-gradient-15" x1="4937.62" y1="2792.87" x2="4995.22" y2="2792.87" gradientTransform="translate(-2639.87 27.38) rotate(-0.37)" xlink:href="#linear-gradient-11"/><linearGradient id="linear-gradient-16" x1="2665.4" y1="2500.49" x2="2574.79" y2="3001.23" xlink:href="#linear-gradient-12"/><linearGradient id="linear-gradient-17" x1="2543.92" y1="2739.13" x2="2520.04" y2="2947.49" xlink:href="#linear-gradient-11"/><linearGradient id="linear-gradient-18" x1="2414.56" y1="2076.23" x2="2414.56" y2="3048.37" xlink:href="#linear-gradient-2"/><linearGradient id="linear-gradient-19" x1="2215.52" y1="1657.76" x2="2299.23" y2="1417.42" gradientUnits="userSpaceOnUse"><stop offset="0" stop-color="#53d8ff"/><stop offset="1" stop-color="#3840f7"/></linearGradient><linearGradient id="linear-gradient-20" x1="2399.37" y1="1526.84" x2="2129.93" y2="2509.23" xlink:href="#linear-gradient-12"/><linearGradient id="linear-gradient-21" x1="2402.19" y1="1382.48" x2="2311.03" y2="1776.4" xlink:href="#linear-gradient-11"/><linearGradient id="linear-gradient-22" x1="1266.5" y1="-271.63" x2="1104.79" y2="-57.7" gradientTransform="translate(1329.24 2036.38) rotate(-21.06)" xlink:href="#linear-gradient-11"/><linearGradient id="linear-gradient-23" x1="1143" y1="-220.25" x2="1336.17" y2="-220.25" gradientTransform="translate(1329.24 2036.38) rotate(-21.06)" xlink:href="#linear-gradient-2"/><linearGradient id="linear-gradient-24" x1="1029.66" y1="-102.21" x2="1159.37" y2="-235.29" gradientTransform="translate(1329.24 2036.38) rotate(-21.06)" xlink:href="#linear-gradient-11"/><linearGradient id="linear-gradient-25" x1="2944.93" y1="2583.16" x2="2985.47" y2="2936.06" xlink:href="#linear-gradient-12"/><linearGradient id="linear-gradient-26" x1="-5393.58" y1="2378.43" x2="-5601.17" y2="2625.09" gradientTransform="matrix(0.99, 0.15, -0.15, 0.99, 9024.07, -225.86)" xlink:href="#linear-gradient-2"/><linearGradient id="linear-gradient-27" x1="5505.04" y1="1157.01" x2="5098.24" y2="1727.85" gradientTransform="matrix(-0.99, -0.12, -0.12, 0.99, 8264.53, 715.42)" xlink:href="#linear-gradient-3"/><linearGradient id="linear-gradient-28" x1="-5460.29" y1="2521.53" x2="-5441.22" y2="2386.12" gradientTransform="translate(8902.93 797.67) rotate(16.22)" xlink:href="#linear-gradient-11"/><linearGradient id="linear-gradient-29" x1="-5771.72" y1="2556.02" x2="-5613.58" y2="2737.83" gradientTransform="matrix(0.99, 0.15, -0.15, 0.99, 9024.07, -225.86)" xlink:href="#linear-gradient-11"/><linearGradient id="linear-gradient-30" x1="-5493.01" y1="2294.76" x2="-5700.6" y2="2541.42" gradientTransform="matrix(0.99, 0.15, -0.15, 0.99, 9024.07, -225.86)" xlink:href="#linear-gradient-2"/><linearGradient id="linear-gradient-31" x1="-5732.21" y1="2521.65" x2="-5574.07" y2="2703.46" gradientTransform="matrix(0.99, 0.15, -0.15, 0.99, 9024.07, -225.86)" xlink:href="#linear-gradient-11"/><linearGradient id="linear-gradient-32" x1="3014.74" y1="1712.32" x2="3077.56" y2="1831.98" xlink:href="#linear-gradient-11"/><linearGradient id="linear-gradient-33" x1="3317.47" y1="2611.54" x2="2792.9" y2="2387.4" xlink:href="#linear-gradient-11"/><linearGradient id="linear-gradient-34" x1="3207.84" y1="2408.31" x2="3496.36" y2="2281.93" xlink:href="#linear-gradient-11"/><linearGradient id="linear-gradient-35" x1="4950.83" y1="3003.05" x2="4969.9" y2="2344.95" gradientTransform="matrix(-1, -0.01, -0.01, 1, 8008.42, 56.94)" xlink:href="#linear-gradient-12"/><linearGradient id="linear-gradient-36" x1="3178.22" y1="1973.28" x2="3343.39" y2="1812.63" xlink:href="#linear-gradient-12"/><linearGradient id="linear-gradient-37" x1="2376.81" y1="7939.26" x2="2562.36" y2="8228.9" gradientTransform="translate(-360.72 -294.21) rotate(-45.02)" xlink:href="#linear-gradient-12"/><linearGradient id="linear-gradient-38" x1="2288.45" y1="1496.42" x2="2019.01" y2="2478.8" xlink:href="#linear-gradient-12"/><linearGradient id="linear-gradient-39" x1="2613.86" y1="1585.67" x2="2344.41" y2="2568.05" xlink:href="#linear-gradient-12"/><filter id="luminosity-noclip-3" x="2314.02" y="1682.35" width="164.98" height="545.75" filterUnits="userSpaceOnUse" color-interpolation-filters="sRGB"><feFlood flood-color="#fff" result="bg"/><feBlend in="SourceGraphic" in2="bg"/></filter><mask id="mask-3" x="1877.74" y="1227.35" width="164.98" height="545.75" maskUnits="userSpaceOnUse"><g class="cls-60"><g transform="translate(-436.28 -455)"><g class="cls-1"><polygon class="cls-2" points="2321.93 2228.09 2314.02 1772.23 2463.37 1682.35 2479 2158.54 2321.93 2228.09"/></g></g></g></mask><linearGradient id="_60" x1="1914.66" y1="1448.67" x2="2417.88" y2="2070.62" gradientUnits="userSpaceOnUse"><stop offset="0" stop-color="#fff"/><stop offset="1" stop-color="#fff"/></linearGradient><filter id="luminosity-noclip-4" x="2844.4" y="1658.3" width="175.03" height="576.18" filterUnits="userSpaceOnUse" color-interpolation-filters="sRGB"><feFlood flood-color="#fff" result="bg"/><feBlend in="SourceGraphic" in2="bg"/></filter><mask id="mask-4" x="2408.12" y="1203.3" width="175.03" height="576.18" maskUnits="userSpaceOnUse"><g class="cls-59"><g transform="translate(-436.28 -455)"><g class="cls-3"><polygon class="cls-4" points="3002.05 2234.48 3019.43 1768.62 2844.4 1658.3 2846.84 2147.45 3002.05 2234.48"/></g></g></g></mask><linearGradient id="_67" x1="2339.68" y1="1388.24" x2="2795.92" y2="1721.46" gradientUnits="userSpaceOnUse"><stop offset="0" stop-color="#fff"/><stop offset="0.03" stop-color="#fff"/><stop offset="1" stop-color="#fff"/></linearGradient><linearGradient id="linear-gradient-40" x1="2105.63" y1="1585.01" x2="2178.43" y2="1585.01" gradientTransform="matrix(-0.86, -0.51, -0.51, 0.86, 5663, 1532.29)" xlink:href="#linear-gradient-11"/><linearGradient id="linear-gradient-41" x1="2504.45" y1="-53.05" x2="2610.52" y2="-53.05" gradientTransform="translate(390.11 3616.96) rotate(-40.23)" xlink:href="#linear-gradient-11"/><linearGradient id="linear-gradient-42" x1="2324.07" y1="29.6" x2="2171.35" y2="95.78" xlink:href="#linear-gradient-11"/></defs><g id="Illustration"><path class="cls-5" d="M2923.22,2835.31c-57.58,60.62-112.06,99.71-155.1,130.59-505.95,363-1104.62,257.2-1231.85,231.36-187.89-38.16-551.06-111.92-813.63-420.7-397.25-467.16-335.39-1203.15-27.26-1689,56.36-88.86,337.32-535.68,942.43-614.78,366.21-47.87,863.34-10.05,1172.47,248.94C3459.19,1265.39,3359.53,2376,2923.22,2835.31Z" transform="translate(-436.28 -455)"/><path class="cls-6" d="M3129.87,2427.27q-4.18-4.3-8.47-8.54c-55.94-55.39-121-100.53-183.24-148.44-27.7-21.31-57.66-43.51-92.42-45.54-37.2-2.18-71.29,19.17-102.53,39.7-40.08-40.61-85.93-83.89-142.66-85.86-41.35-1.43-79.78,19.76-115.81,40.33l-188.87,107.81c-38,21.69-76.81,43.69-119.59,52.41s-91,2.11-123-27.83c-.56-.52-30.29,2.87-32.92,2.62a.13.13,0,0,0-.14.16l31.36,168.64c59.42,2,118.6,6.38,178.17,9.53,42.28,2.24,88.24.09,129.48,10.71,39.67,10.21,81.67,5.27,122.46,13.39,3.71.73,7.52,1.6,10.57,3.85s5.16,6.25,4.09,9.91c-1.23,4.21-5.83,6.25-9.91,7.75l-48.11,17.73c-6.25,2.3-13.68,6.25-13.49,13,.16,5.69,56.25,7,63.48,7.37,33.95,1.94,70.11-5.38,100.41-20.93,8.93-4.59,17.5-10,26.91-13.44,10-3.69,20.66-5.11,31.23-6.34,53.55-6.24,107.48-8.34,161.34-10.44,143.13-5.58,286-5.13,429-8.08,20.91-.43,27.92-28,9.8-38.48A540,540,0,0,1,3129.87,2427.27Z" transform="translate(-436.28 -455)"/><path class="cls-7" d="M3038.46,2956.56h-2390c-116.69,0-212.15-95.47-212.15-212.15V2502.52A40.84,40.84,0,0,1,477,2461.8H3214.28a40.84,40.84,0,0,1,40.73,40.72V2740C3255,2859.11,3157.56,2956.56,3038.46,2956.56Z" transform="translate(-436.28 -455)"/><path class="cls-8" d="M20.05,2305.24H2814.78a12,12,0,0,1,12,12v419A63.8,63.8,0,0,1,2763,2800H70.56a62.51,62.51,0,0,1-62.51-62.51V2317.24a12,12,0,0,1,12-12Z"/><path class="cls-6" d="M436.86,2948l-.15,40.72,572.45,2c.11-13.6.27-27.18.55-40.73Z" transform="translate(-436.28 -455)"/><path class="cls-6" d="M1577.48,2952.06l-493.29-1.74q-.32,20.37-.46,40.72l493.52,1.75C1577.4,2979.22,1577.5,2965.63,1577.48,2952.06Z" transform="translate(-436.28 -455)"/><path class="cls-6" d="M1634,2952.26V2993l469.15,1.66q.38-20.37.64-40.72Z" transform="translate(-436.28 -455)"/><path class="cls-6" d="M3240.6,2958l-1043.25-3.69V2995l1043.11,3.69Z" transform="translate(-436.28 -455)"/><path class="cls-9" d="M1384.92,2379.62s-273.18-989-783-1515.26c-34.27-35.37-94.07-19.05-105.32,28.91C421.37,1213.92,290.14,2183,1384.92,2379.62Z" transform="translate(-436.28 -455)"/><path class="cls-10" d="M1283.15,2319a2.71,2.71,0,0,1-3.37,4.24C1176.24,2252,773.07,1898.13,602.15,1169.62a1.9,1.9,0,0,1,3.64-1.08C661,1336.84,884.1,1956.67,1283.15,2319Z" transform="translate(-436.28 -455)"/><path class="cls-6" d="M1375.12,2480.21s16.65-1147.78-352.85-1872.07c-24.83-48.69-91.87-49.78-118.1-1.76C728.79,927.5,298.41,1927.85,1375.12,2480.21Z" transform="translate(-436.28 -455)"/><path class="cls-10" d="M1287.9,2383.32c1.92,3.25-2.46,6.46-4.79,3.51-85.85-108.78-396.94-614.59-353.23-1450.61a2.05,2.05,0,0,1,4.1,0C940.19,1134.21,983.64,1869.73,1287.9,2383.32Z" transform="translate(-436.28 -455)"/><path class="cls-11" d="M2704.56,2507.23c-1-9.68-2.09-19.38-3.15-29-10.93-98.56-61.23-187-137.78-242.1l-5.93-4.26c-92.21-66.32-198.14-107.11-308.43-118.78,0,0-224.28-18.24-254.33-20.47-173.43-486.57-1217.18-518.94-1498.11,306.09,0,0-25.82,69.94-39.48,105.74-22,57.76,19.32,120.12,80.68,121.65,36.17.9,72.23,1.94,108.18,2.88a103.17,103.17,0,0,0,27.52,3.84H2430.87l186.62-13.17C2670.94,2615.9,2710.68,2564.63,2704.56,2507.23Z" transform="translate(-436.28 -455)"/><path class="cls-12" d="M2698.36,2581.92h-5.59c-10.87,0-19.69-9.52-19.69-21.25V2453.92c0-11.74,8.82-21.25,19.69-21.25h0c10.45,0,19.08,8.8,19.66,20l5.59,106.75C2718.66,2571.66,2709.67,2581.92,2698.36,2581.92Z" transform="translate(-436.28 -455)"/><path class="cls-13" d="M2629.06,2412.18h58.64c-21.83-71.38-65.12-133.63-124.07-176l-5.93-4.26q-9.16-6.59-18.52-12.83c12,45,26.73,106.82,36.45,148.28C2581.82,2393.73,2603.82,2412.18,2629.06,2412.18Z" transform="translate(-436.28 -455)"/><path class="cls-14" d="M1450.49,2167.64H1631.6c14.13,0,24.09,15.15,19.19,29.44-8.29,24.19-28,55-74.94,58.64-42.19,3.24-95.37-22.53-135.48-47C1422.18,2197.6,1429.59,2167.64,1450.49,2167.64Z" transform="translate(-436.28 -455)"/><circle class="cls-15" cx="917.21" cy="2589.21" r="239.09" transform="translate(-1998.48 951.93) rotate(-45)"/><circle class="cls-16" cx="917.21" cy="2589.21" r="194.17" transform="translate(-1998.48 951.93) rotate(-45)"/><circle class="cls-17" cx="2327.35" cy="2589.21" r="239.09" transform="translate(-1585.46 1949.04) rotate(-45)"/><circle class="cls-18" cx="2327.35" cy="2589.21" r="194.17" transform="translate(-1585.46 1949.04) rotate(-45)"/><path class="cls-19" d="M2485.75,2661a4.72,4.72,0,0,1-1.9-.39,4.86,4.86,0,0,1-2.59-6.38,165.94,165.94,0,0,0,13.13-65c0-92.11-74.94-167.05-167-167.05a167.11,167.11,0,0,0-81.53,21.22,4.87,4.87,0,1,1-4.77-8.49,176.87,176.87,0,0,1,86.3-22.47c97.48,0,176.79,79.31,176.79,176.79a175.65,175.65,0,0,1-13.9,68.81A4.86,4.86,0,0,1,2485.75,2661Z" transform="translate(-436.28 -455)"/><path class="cls-19" d="M1080.3,2661a4.71,4.71,0,0,1-1.89-.39,4.86,4.86,0,0,1-2.59-6.38,165.94,165.94,0,0,0,13.12-65c0-92.11-74.93-167.05-167-167.05a167.15,167.15,0,0,0-81.54,21.22,4.87,4.87,0,1,1-4.76-8.49,176.84,176.84,0,0,1,86.3-22.47c97.48,0,176.78,79.31,176.78,176.79a175.64,175.64,0,0,1-13.89,68.81A4.87,4.87,0,0,1,1080.3,2661Z" transform="translate(-436.28 -455)"/><path class="cls-19" d="M1206.51,2517a4.87,4.87,0,0,1-4.78-4c-21.11-111-84.36-181.71-188-210.06-77.77-21.28-150.37-9.45-151.09-9.33a4.87,4.87,0,0,1-1.63-9.61c3-.5,75.18-12.29,155,9.46,74,20.18,168,74.34,195.29,217.72a4.88,4.88,0,0,1-3.87,5.7A5.82,5.82,0,0,1,1206.51,2517Z" transform="translate(-436.28 -455)"/><path class="cls-19" d="M2035.32,2553.45a4.86,4.86,0,0,1-4.86-4.71c-2.77-88.56,21-158,70.63-206.28,81.88-79.72,207.46-73.36,208.72-73.3a4.87,4.87,0,1,1-.56,9.72c-1.22-.07-122.67-6.12-201.43,70.61-47.56,46.33-70.31,113.26-67.63,198.94a4.86,4.86,0,0,1-4.71,5Z" transform="translate(-436.28 -455)"/><path class="cls-9" d="M969.35,2129.51h372.58a25.44,25.44,0,0,0,25.44-25.44v-201a69.93,69.93,0,0,0-76.64-69.51c-201.41,19-330.45,84.9-382.9,200.55C887.56,2078.79,920.27,2129.51,969.35,2129.51Z" transform="translate(-436.28 -455)"/><path class="cls-9" d="M1405,2110.34V1863.8A17.87,17.87,0,0,1,1424.6,1846c222.13,22.49,370.11,102.46,408.93,267.06a13.37,13.37,0,0,1-13,16.44h-396.4A19.16,19.16,0,0,1,1405,2110.34Z" transform="translate(-436.28 -455)"/><path class="cls-9" d="M1994.94,2092.63c-48.1-129-133.75-214.38-241.76-260.74,49.42,113.64,94.15,215.27,149.43,281.4C1935.14,2120.17,1965.9,2113.11,1994.94,2092.63Z" transform="translate(-436.28 -455)"/><path class="cls-19" d="M1412,2594a29.15,29.15,0,0,1-29-28.23l-20.09-725a27.33,27.33,0,0,1,26.06-28c102.18-4.35,193.31-4.74,273.84,34.94,93.26,46,159.45,138.27,208.32,290.52l.22.71,7.92,448-466.82,7Zm-18.84-28.51a18.92,18.92,0,0,0,18.84,18.32h.28l456.61-6.86-7.71-436.27C1754,1807.42,1568.61,1815.31,1389.37,1823a17.1,17.1,0,0,0-16.31,17.48Z" transform="translate(-436.28 -455)"/><path class="cls-20" d="M1911.88,2125.64l-41.53-43.53a123,123,0,0,0-62.74-35.67l-82.14-17.87c-22.54-4.9-44.12,12.14-46.58,36.81l-.58,5.79c-2.51,25.12,15.88,47,39.3,46.69l105.82-1.3c14.76-.18,28.17,9.23,34,23.86l1.95,4.89a16.42,16.42,0,0,0,15.06,10.7h26C1915.17,2156,1922.43,2136.71,1911.88,2125.64Z" transform="translate(-436.28 -455)"/><ellipse class="cls-21" cx="586.07" cy="2364.33" rx="60.31" ry="32.08" transform="translate(-2283.28 1792.26) rotate(-73.32)"/><rect class="cls-22" x="0.51" y="1997.45" width="149.29" height="129.47" rx="18"/><rect class="cls-23" x="358.89" y="1113.09" width="1172.23" height="266.52" rx="26.44"/><path class="cls-6" d="M802.3,1712.46a5.09,5.09,0,0,1,0-10.18l1158.24-6h0a5.09,5.09,0,0,1,0,10.18l-1158.24,6Z" transform="translate(-436.28 -455)"/><path class="cls-6" d="M1469,1703.87v26.39c0,8.23-7.15,16.86-15.37,16.86H1315.54c-8.22,0-15.37-8.63-15.37-16.86v-26.39h-21.35s-1.31-.62-1.31-.38v47.36c0,8.22,8.41,14.8,16.64,14.8h180.9a14.54,14.54,0,0,0,14.57-14.8v-47.36c0-.24-.24.38-.25.38Z" transform="translate(-436.28 -455)"/><rect class="cls-24" x="531.71" y="912.37" width="905.77" height="205.94" rx="26.44"/><path class="cls-19" d="M973.49,1480.08a5.09,5.09,0,0,1,0-10.18l895-4.65h0a5.09,5.09,0,0,1,0,10.18l-894.95,4.65Z" transform="translate(-436.28 -455)"/><path class="cls-19" d="M1489.62,1473.23v19.45c0,6.36-6.47,11.44-12.83,11.44H1370.07c-6.35,0-12.24-5.08-12.24-11.44v-19.45h-16.14a15.23,15.23,0,0,0-2.4-1.24v36.6c0,6.35,7.89,9.94,14.25,9.94h139.78c6.36,0,10.72-3.59,10.72-9.94V1472a11.21,11.21,0,0,1,.35,1.24Z" transform="translate(-436.28 -455)"/><path class="cls-25" d="M2327,2814.66s-12.24,22.31-23.84,81.45a18.32,18.32,0,0,0,16.26,21.84c19.18,1.76,48.7,4,72.33,3.68a18.28,18.28,0,0,0,18-20.5c-2.76-21.54-11.15-56.86-36.52-84.27Z" transform="translate(-436.28 -455)"/><path class="cls-26" d="M2315.64,2747l15.12,79.55s14.51,10.65,43,2.68l-7.53-85.65Z" transform="translate(-436.28 -455)"/><path class="cls-7" d="M2559.57,2905.74c-30.57-.86-46.39-4.46-54.56-7.8,0,3,0,6.14.09,9.34.11,3.43,2.64,6.16,5.76,6.14l167.89-1.08c5.36,0,8.49-6.25,6.17-11.16C2662.91,2903,2606.84,2907.06,2559.57,2905.74Z" transform="translate(-436.28 -455)"/><path class="cls-27" d="M2684.92,2901.18a7.36,7.36,0,0,0-.67-1.27c-14.82-20.72-52.59-62-127.21-79.86l-35.79-1.13s-15.94,27.7-16.24,79c8.17,3.34,24,6.94,54.56,7.8C2606.84,2907.06,2662.91,2903,2684.92,2901.18Z" transform="translate(-436.28 -455)"/><path class="cls-28" d="M2514.61,2764.67c.4,2.66,5.3,43.22,7.2,58.94a7.79,7.79,0,0,0,6.57,7c6.1.73,16,1.39,24.59-.38,4.66-.95,8-5.43,8-10.63V2756Z" transform="translate(-436.28 -455)"/><path class="cls-29" d="M2485.89,2024.56s86.34,328.13,84.78,741a16,16,0,0,1-12.68,15.58c-10.86,2.29-26.82,5-40,4.63a14.84,14.84,0,0,1-14.13-12.38c-12.11-71-67.55-499.57-107.14-564.5,0,0-23.87,384.83-15.54,569.64a8.76,8.76,0,0,1-7.73,9.11c-6.93.8-34.22,1.41-48.33-.09a11.74,11.74,0,0,1-10.45-10c-8.62-60.08-58.26-417.74-56.15-675.38.12-14.52,38.43-77.7,38.43-77.7Z" transform="translate(-436.28 -455)"/><path class="cls-30" d="M2216.74,1739.19c-23.47-64.23-14.95-141.79-14.86-142.56l6.46.74c-.08.76-8.41,76.83,14.52,139.59Z" transform="translate(-436.28 -455)"/><path class="cls-31" d="M2566.83,1560.81c-25.32-28.6-84.94-62.6-143.27-59-60.73,3.77-116.63,15.72-120.68,16.61a1.12,1.12,0,0,1-.24,0c-27.95,3.68-52.21,6.76-69.75,9a83.63,83.63,0,0,0-52.78,28.36c-53.6,62-160.14,304.7,42.4,268.25a172.6,172.6,0,0,1,.33-75.15,162.72,162.72,0,0,0,4.09,15.91c44.28,140.16,46.63,256.82,46.5,283.68a8.84,8.84,0,0,0,5.59,8.3c58.21,23.34,170.34,9.44,207.93,3.85a12.66,12.66,0,0,0,10.61-14.38c-11.22-81.3,19.41-194.47,50.76-283.15C2574.93,1706.63,2566.83,1560.81,2566.83,1560.81Z" transform="translate(-436.28 -455)"/><path class="cls-32" d="M2333.31,1413.15l-11.22,114.66s64.5,19.43,111.41-13.67l-33-104.21Z" transform="translate(-436.28 -455)"/><path class="cls-33" d="M2442.8,1315.44c.76,2,4,142.91,4,142.91l-80.5.14-22.92-133.11S2430,1282.13,2442.8,1315.44Z" transform="translate(-436.28 -455)"/><path class="cls-34" d="M2371,1342a11.6,11.6,0,0,0-3.61,9.53l6.48,70a11.23,11.23,0,0,0,.72,3.08c2.14,5.47,10.37,22.36,27.5,13,14.61-8,28.14-15.12,39.13-15.47a11.56,11.56,0,0,1,11.83,11.39c.26,13.22.23,39.92-3.12,63.63a11.51,11.51,0,0,1-12.15,9.82c-15.81-1-46.62-3.87-71.36-11.82a11.58,11.58,0,0,1-7.85-8.93c-3.41-18.47-13.18-70.22-18.18-84.4-4.65-13.18-22.73-17.74-31.18-19.18a11.62,11.62,0,0,1-7.8-5.09c-5.35-8.15-13.06-25.76,8.15-39.1a11.57,11.57,0,0,0,3.58-15.72c-5.75-9.57-9.88-24.33,6.89-37,17-12.78,33.42-6.76,43.49-.31a12,12,0,0,0,14.39-.86,7.66,7.66,0,0,1,7.41-1.65,11.22,11.22,0,0,0,13.9-7.94c2.74-10.54,10.17-22.36,29.61-23.43,35.64-1.95,48.2,35.18,44.23,59.52s-42.73,24.26-63.77,17.24C2393.81,1323.2,2378.18,1335.26,2371,1342Z" transform="translate(-436.28 -455)"/><path class="cls-35" d="M2343,1427.67s5.09-42.71-11.6-49.07-37,3.55-25.76,31.08C2319.64,1443.92,2343,1427.67,2343,1427.67Z" transform="translate(-436.28 -455)"/><path class="cls-36" d="M3027.61,2779.25c-17.5,16-31.7.3-36.46-1.68.19,3.13-38.23,11-64.93,14s-32,29.21-19.86,34.5,52.91,6.88,74.07,2.11c18.16-4.08,33.2,2.74,50.14,4.09a10.76,10.76,0,0,0,11.37-8.53C3047.19,2798.72,3027.61,2779.25,3027.61,2779.25Z" transform="translate(-436.28 -455)"/><path class="cls-37" d="M2935.57,1440.7s-32.5-88.25,74.95-78.16c0,0,49.47-15.06,58.46,32.34,0,0,35.49,17.11,17.16,61.64,0,0,91.89-50.45,145.51,28.82s21.1,131.23-18,148.86c0,0,35.19,12.13,24.6,51.59s-86.06,76.43-138.84,37.25c0,0-130.46,35.38-140.4-58.79,0,0-67.14-31.6-12.66-117.84S2935.57,1440.7,2935.57,1440.7Z" transform="translate(-436.28 -455)"/><path class="cls-38" d="M2946,1629.05c21.13-6.33,82.66-18,141.17,36a36.23,36.23,0,0,1,10.44,36.11c-15.71,57.86-57.18,228.82-20.82,302.79,0,0-64.08,70.64-134,13.71,0,0-31.37-136.71-72.45-196.72-28.36-41.43,45.23-155.58,63.84-183.15A21.84,21.84,0,0,1,2946,1629.05Z" transform="translate(-436.28 -455)"/><path class="cls-39" d="M3030,1508.51s5.55,94,7.9,133c0,0-34.53,15.7-67.07-10.81,0,0,5.7-88.83.76-104.64Z" transform="translate(-436.28 -455)"/><path class="cls-40" d="M2941.62,1417s-65.78,124.24-12.94,150.67,99.7-61.88,99.7-61.88,10.46-64.57-12-83S2941.62,1417,2941.62,1417Z" transform="translate(-436.28 -455)"/><path class="cls-41" d="M2975.48,1384.86s-36,13.81-39,31.35,57.13,25.36,73.48,24l22.21,66.18s30.12-69.11,9.83-104S2975.48,1384.86,2975.48,1384.86Z" transform="translate(-436.28 -455)"/><path class="cls-42" d="M3011.55,1499.54s26.63-40.75,42.37-18.63-22.79,45.49-38.52,35.7Z" transform="translate(-436.28 -455)"/><path class="cls-43" d="M3094.24,1677.89s81.77,116.81,52.57,210.26-201.43-117.52-201.43-117.52l4.52-18.92,131.94,78.82a7.88,7.88,0,0,0,11.52-9.26l-22.48-67.45S3070.88,1718.77,3094.24,1677.89Z" transform="translate(-436.28 -455)"/><path class="cls-44" d="M3076.46,2731.16c-18.57-45.1-66.36-171.47-78.25-227.42-13.51-63.6-84.13-115.25-84.13-115.25l107.61-165.76L2987,2210l-100.41,9.12s-36.11,141-42,167.26a43.27,43.27,0,0,0,4.66,31l206.7,344.84C3056.7,2763.5,3079.37,2738.22,3076.46,2731.16Z" transform="translate(-436.28 -455)"/><path class="cls-45" d="M3065.51,2385.21l63.89-199L2987,2210l-3.18,149.75s7.24,309.16,8.22,353.07c.36,15.88,2.45,39.94-.82,64-.34,3.08,1.37,4.28,3.31,5.48,9.82,6.08,19.36,10.16,33.66-2.4l-3.08-11.63c-.92-7.76,3-17,4.77-25.53,9.5-46,41.24-199.17,49.89-232.15,9.31-35.46,10.65-81.74-16-122.6Z" transform="translate(-436.28 -455)"/><path class="cls-46" d="M2986.78,2264.72s84.92-13.5,128.72-6.57c1.49-.29,3-.53,4.45-.81l8.56-38.5c20.78-93.31,44-193.93-58.06-254.78-47,20.14-90.89,32-137.36,20.24,0,0,9.2,29.35-4.94,77.68l-49.54,171.94C2907,2237.77,2981.3,2255.82,2986.78,2264.72Z" transform="translate(-436.28 -455)"/><path class="cls-47" d="M2986.78,2264.72s84.92-13.5,128.72-6.57c1.49-.29,3-.53,4.45-.81l8.56-38.5c20.78-93.31,44-193.93-58.06-254.78-47,20.14-90.89,32-137.36,20.24.82,4.48,2,11.72,2.83,20.71a218.92,218.92,0,0,1,.88,24.21c-.08,11.43,11.74,34.93,63,87.63q-1.7,38.83-5.48,80.78Q2991.12,2232.36,2986.78,2264.72Z" transform="translate(-436.28 -455)"/><path class="cls-48" d="M3076.3,2730.27c-1,22.6-21.2,21.61-25.75,23.49,2.25,2-18.4,33.24-34.35,53.34s-1.89,41.36,9.9,36.71,40.36-31.1,51.43-48.61c9.5-15,24.26-20.58,36.61-31.11a10.28,10.28,0,0,0,1.92-13.44C3102.67,2730.18,3076.3,2730.27,3076.3,2730.27Z" transform="translate(-436.28 -455)"/><path class="cls-49" d="M2200.3,1538.84l26.63,226c4.06,49.75,24.14,108.76,61,138,0,0,2.68,58.67-6.49,71.55-92.35,11-228.43-177.55-161.58-306.51Z" transform="translate(-436.28 -455)"/><path class="cls-50" d="M2556.13,1550.22c42.49,77.76,73.23,156.71,78.81,238.22l-156.77,12.32Z" transform="translate(-436.28 -455)"/><polygon class="cls-21" points="2573.48 1789.98 2410.57 1707.66 2236.76 1773.1 2042.72 1715.74 1877.74 1783.51 1864.75 1317.72 2029.13 1216.38 2225.48 1316.92 2410.57 1189.19 2590.24 1314.02 2573.48 1789.98"/><polygon class="cls-9" points="2027.09 1227.35 2221.35 1328.03 2408.12 1203.3 2583.15 1313.62 2565.77 1779.48 2410.57 1692.45 2238.25 1763.54 2042.72 1703.54 1885.65 1773.1 1877.74 1317.23 2027.09 1227.35"/><polygon class="cls-9" points="2221.35 1328.03 2238.25 1763.54 2410.57 1692.45 2408.12 1203.3 2221.35 1328.03"/><path class="cls-7" d="M2714.87,2015q-1.35,10.2-2.19,20.45c-.14,1.63.19,3.84,1.82,4,1,.1,1.8-.7,2.46-1.43,2.8-3.1,5.81-7.1,4.46-11-.51-1.48-1.58-2.71-2-4.21-.62-2.26.36-4.66.1-7s-3.14-4.61-4.76-2.92Z" transform="translate(-436.28 -455)"/><path class="cls-7" d="M2534.7,1908.88a9.9,9.9,0,0,0-.92-6c-1.62-3.19-4.94-5.24-8.4-6.16a38.56,38.56,0,0,0-10.68-.78l-10,.21a7.63,7.63,0,0,0-2.9.44,6.53,6.53,0,0,0-2.82,3,23.92,23.92,0,0,0-3.12,12.86c-4.38,1.49-8.63-2.54-11-6.5a47.79,47.79,0,0,1-5.84-14.84c-.42-2-.68-4.25.36-6a8.17,8.17,0,0,1,2.42-2.37,26.63,26.63,0,0,1,12.56-5.19c7.79-.82,15.35,2.89,21.73,7.44,6.13,4.37,16.13,9.6,23,3.32,3.55-3.24,3.62-9.14,1.15-13.26-4-6.7-14.27-10.2-20.94-13.59-3.13-1.58-5.13-4.84-6-8.23a37.21,37.21,0,0,1-.71-10.44,34.2,34.2,0,0,1,28.77,1.89c1.24.69,2.55,1.64,2.7,3s-1,2.64-1.89,3.78c-13,16.41,14,27.68,25.63,31.65,4.72,1.61,9.23,4.26,14.27,3.27,4.69-.92,8.9-6,13.76-7.34,3.52-.94,7.27-.45,10.84-1.16s7.29-3.4,7.14-7c-.12-3-2.72-5.19-5.31-6.64,0,.29-4.49-3.26-4.91-4-3.92-7.59,1.77-14.27,3.95-20.83,3.16-9.48-1.51-15.06,8.19-20.31,2.07-1.12,3.69-3.89,2.26-5.75-1.29-1.68-3.84-1.26-6-1.25-6.75,0-12.11-5.64-18.6-7.51-3.4-1-7-.86-10.54-.91a110.52,110.52,0,0,1-48.42-12c-11-5.64-18-6.4-29.84-5.15-11.2,1.18-18.77,6.62-26.46,14.37-1.75,1.76-3.45,3.69-5.72,4.7-9.5,4.24-21.56,3.39-31.26,7.57-11.55,5-14.81,20.49-25.36,27.34-6.11,4-13.8,4.47-20.51,7.3-9.93,4.21-14.51,12.93-20.14,21.43-3.47,5.22-16.24,14.17-15.51,20.28a7.48,7.48,0,0,0,1.21,3.1c3.52,5.48,8.77,6.06,14.31,7.62,7.32,2.07,11.74,5.25,18.21,9.67,6.76,4.62,15.95,8.66,16.53,16.82.27,3.79-1.56,7.37-2.45,11.06-4,16.64,10.94,31.59,25.5,40.59s31.76,17.89,36.39,34.37c.43,1.51.78,3.14,1.91,4.21,4.26,4,7.44-5.1,8.73-8,.83-1.87.08-4.12-1.22-5.71a30.22,30.22,0,0,0-4.66-4,25.84,25.84,0,0,1-9.42-17.83,3.89,3.89,0,0,1,.42-2.55c2.52-3.7,8.82-5.21,11.91-9.69,4.41-6.41,5.42-12.48,6.17-20.08,2.76-27.93,29.07-18,45.58-30.43A15.21,15.21,0,0,0,2534.7,1908.88Z" transform="translate(-436.28 -455)"/><path class="cls-7" d="M2486.83,2053.42c1.69,3.44,3.08,6.69,3.45,9.46,1.6,12-8.76,26.83-13.16,37.82-1.23,3.05-2.48,6.3-1.93,9.54a18.44,18.44,0,0,0,1.32,3.94c4,9.42,11.86,17.94,18.84,25.21,2.39-6.23,2.21-21.19,1.56-27.82-.22-2.19-.6-4.48.21-6.52,2.59-6.57,11-15.59,16.8-19.51s13.16-6.91,14.64-13.61c.56-2.58.09-5.34.92-7.84a28,28,0,0,1,2.19-4.2c3.68-6.83,5.77-20-1.6-24.89-8.23-5.43-19.89,2.52-27-6.33a46.07,46.07,0,0,0-3.07-4.1,10.25,10.25,0,0,0-8.84-2.42C2470.39,2025.64,2480.64,2040.82,2486.83,2053.42Z" transform="translate(-436.28 -455)"/><path class="cls-7" d="M2617.59,1954c6.58,4.21,17.93-5,22.1-15.81a12.48,12.48,0,0,1,2-3.84c2-2.21,5.3-2.5,8.21-2.09s5.83,1.35,8.76,1c4.19-.54,7.66-3.76,9.62-7.51s2.66-8,3.34-12.18a14.68,14.68,0,0,1,9.38.83c2.26,1,4.48,3.2,3.85,5.59a6.69,6.69,0,0,1-1.91,2.76,81.56,81.56,0,0,0-6.86,8.1c-1.3,1.76-2.57,4.05-1.6,6,2.66,5.33,7.52,2.56,6.12,10.18-1.76,9.54-14.72,13.44-7.32,24.84a16,16,0,0,0,12.61,6.9c3.57.16,8-1.69,8-5.26,0-1.06-.38-2.14,0-3.15.43-1.31,1.92-1.95,3.28-2.15,4.45-.68,8.75,1.55,12.86,3.4,1.24.56,2.73,1.07,3.91.4,3.84-2.2,2.05-4,7.27-4.51,4.46-.41,9.67,3,12.19,6.42a3,3,0,0,1,.77,2.81c-.33.82-1.26,1.24-1.72,2-.77,1.24,0,3,1.22,3.75a11.25,11.25,0,0,0,4.14,1.28c6.69,1.38,6.85,7.76,11.58,11,3.84,2.58,13.62,3.09,12.76-4.34-.32-2.72-3-5-2.6-7.66.4-2.37,3.07-3.64,5.46-3.94s4.94-.08,7.07-1.19a31.45,31.45,0,0,0,3.8-3c8-5.81,26.91-.87,33,5.65,5.73,6.09,6.37,16.59,13.74,20.53a32.38,32.38,0,0,0-11.16-21.06,9.88,9.88,0,0,1-3-3.28,8.29,8.29,0,0,1-.41-3.71,79.19,79.19,0,0,1,3.33-18.37c-.21.72,4.68-12.29,1.17-9.83,6.29-4.4,20-11.63,27.9-11.16a11.66,11.66,0,0,1,9.87,6.35c1.73,3.73.69,8.7-2.7,11s-7.76,1.8-11.06,3.94a8.42,8.42,0,0,0-3.05,10,14.86,14.86,0,0,1,8.63-5.7c4.61-1.06,9.84,0,13.82-2.5a10.73,10.73,0,0,0,4.51-9,19.8,19.8,0,0,0-3-9.89c-1.25-2.2-2.75-4.29-3.42-6.73-1.07-3.9.2-8.14,2.45-11.5a33.68,33.68,0,0,1,38.3-13.28,4.1,4.1,0,0,1,2.47,1.58c.72,1.27,0,2.88.33,4.31a3.26,3.26,0,0,0,5.38,1.33c1-1.21,1-3,1.35-4.5,1-4,5.08-6.45,9-7.59,4.85-1.4,17.87-7.84,19.21.68a7.79,7.79,0,0,0,.41,2.21c.91,1.92,3.95,1.64,5.4.09,3-3.2,3.51-8.47,6.4-12,2.56-3.16,6.34-5.06,8.48-8.6,5.3-8.76,1.26-20.21-8-24.46-8.84-4.06-19.13-2.26-28.71-.54-6.6,1.19-29.25,5.73-30.86-4.95a7.48,7.48,0,0,0-.53-2.59c-.52-1-1.62-1.46-2.29-2.33-.85-1.11-.89-2.63-1.35-4-1.67-4.8-8-5.68-13.05-5.74.51-3,.79-6.6-1.6-8.44-1.36-1-3.18-1.16-4.89-1.23-4.43-.19-15.12,1.4-18.8-1.2-4.86-3.43-1.51-9.28-3.63-14-2.26-5-10.64-5.73-11.57-11.16-.21-1.18,0-2.39-.13-3.58-.34-2.88-2.69-5.06-4.89-7-4-3.45-8.51-7.09-13.78-7-1,.78-.1,2.43,1,3s2.54.9,3.11,2c1.08,2.16-2,3.94-4.41,4.39-.11,3.17,3.07,5.27,5.53,7.26a23.88,23.88,0,0,1,8.21,13.43,93.44,93.44,0,0,1-25.43,1c-10.21-1-16.76,15.23-28.86,10.74-1.79-.67-3.39-1.86-5.26-2.21-4.71-.89-8.5,3.57-12.74,5.82-6.44,3.42-14.34,1.65-21.25-.71-8.25-2.82-18.28-6.87-26.6-2-3.11,1.82-5.59,4.65-8.89,6.11-6.9,3.07-14.74-.7-22.26-1.42-18.57-1.78-29.74,16.38-35.77,31.51a17.43,17.43,0,0,0-1.61,7.17c.12,2.47,1.37,5,3.62,6,3.34,1.51,7.22-.88,9.4-3.83s3.5-6.54,6.17-9,7.56-3.31,9.67-.32c1,1.48,1.08,3.4,1.08,5.21,0,3.42,0,6.84,0,10.26a13.32,13.32,0,0,1-.77,5.55c-1.27,2.87-4.32,4.46-7.15,5.83l-18.43,8.92a27.42,27.42,0,0,0-5.93,3.51c-8,6.77-2.63,16.14-8.82,22.66-2.5,2.64-6.65,3.43-8.7,6.42-1.51,2.22-1.5,5.1-1.44,7.78C2612.9,1948.09,2614.82,1952.26,2617.59,1954Z" transform="translate(-436.28 -455)"/><path class="cls-7" d="M2831.77,2010.94c-2.49,4.5-2.14,10.38-7.76,12.86-3.74,1.66-8.53.9-11.57,3.63-3.48,3.11-2.57,8.63-1.9,13.24a4.49,4.49,0,0,1-.12,2.47c-.9,2-4.11,2-5.21,3.89-.94,1.65.23,3.73,1.64,5a13.51,13.51,0,0,0,16.08,1.17c1.28-.86,2.67-2,4.17-1.64,1.74.43,2.33,2.55,2.8,4.29a16.58,16.58,0,0,0,6.15,9.41c9.91,6.85,23.84-1.48,34.84,8.18a8.68,8.68,0,0,1,3,4.35c.42,1.9-.22,4.07.85,5.7,1.33,2,4.62,1.76,6.42.12s2.51-4.12,3.26-6.43,1.74-4.77,3.8-6.06c3.48-2.18,7.44-1.34,9.36-5.78,2.4-5.65-4.76-10.33-2.49-15.48,1-2.3,2.64-4.81,1.62-7.11a10.33,10.33,0,0,0-2.52-2.85c-4.24-4.24-5-8.23-10.61-10.81-3.6-1.65-11.07.48-12.55-5.53-.39-1.57.16-3.53-1-4.6a3.83,3.83,0,0,0-2.6-.65c-6.33,0-13.84.12-17.45-5.07-4-5.74-4.44-9.88-12.53-7A9.87,9.87,0,0,0,2831.77,2010.94Z" transform="translate(-436.28 -455)"/><path class="cls-7" d="M2643.35,1979.36c-1.31,1.83-2.06,4-3.44,5.8-3.91,5-5.61.58-10,2.26-1.52.58-2.87,1.61-4.46,2-3.22.74-6.42-1.41-9.72-1.42-12.71,0-6,20.38.12,24.3a7.06,7.06,0,0,0,3.92.73l12.58-.13a5.92,5.92,0,0,1,3.46.68c3,2.09.14,7.24,2,10.43,1.26,2.2,4.16,2.61,6.65,3.06,5.25,1,6.4,6.67,9.62,10.2,4.13,4.53,8.08,6.36,10.41,12.94,1.38,3.91,1.86,8.14,3.69,11.86a17.91,17.91,0,0,0,33.73-10.93c-.85-4.91-3.68-9.21-5.64-13.79-4-9.26-1.28-20.53,9.72-22.3,2.77-.45,6.3-.6,7.34-3.22,1.49-3.76-4.27-8.17-1.88-11.44.86-1.18,2.52-1.6,3.28-2.85,1-1.68-.14-3.85-1.56-5.21s-3.2-2.53-3.78-4.4c-3.29-10.55-14.09-4-21.3-2.57-6.43,1.24-10.1.44-15.45-2.66C2664.29,1977.9,2651.74,1967.73,2643.35,1979.36Z" transform="translate(-436.28 -455)"/><path class="cls-7" d="M2670.75,1814.49c.95-1.78,3.27-2.19,5.28-2.33a78.5,78.5,0,0,1,20.69,1.34c-5.63,4.43-11.91,9.08-19.07,8.84-3.24-.11-6.61-1.23-9.65-.08a7.2,7.2,0,0,1,1-6.43Z" transform="translate(-436.28 -455)"/><path class="cls-7" d="M2590.76,1895.89c7.06,5.59,32-1.87,20.34-9.08a16.72,16.72,0,0,0-6.31-1.86c-2.94-.45-5.95-.89-8.86-.29s-5.74,2.48-6.61,5.32S2589.17,1894.63,2590.76,1895.89Z" transform="translate(-436.28 -455)"/><path class="cls-7" d="M2898.34,1846.73c4.37,3.83,10.48,4.77,16.23,5.56,2.88.39,6.64.28,7.63-2.44s-2.33-5.53-5.37-5.86-6.27.47-9.08-.72c-2.5-1.06-4.46-3.61-7.18-3.59-3.15,0-5.06,4.64-2.85,6.89Z" transform="translate(-436.28 -455)"/><g class="cls-51"><polygon class="cls-52" points="1885.65 1773.1 1877.74 1317.23 2027.09 1227.35 2042.72 1703.54 1885.65 1773.1"/></g><g class="cls-53"><polygon class="cls-54" points="2565.77 1779.48 2583.15 1313.62 2408.12 1203.3 2410.57 1692.45 2565.77 1779.48"/></g><rect class="cls-21" x="2469.49" y="1682.22" width="3.4" height="476.45" transform="matrix(1, -0.03, 0.03, 1, -497.94, -372.91)"/><rect class="cls-21" x="2843.93" y="1658.29" width="3.39" height="489.16" transform="translate(-445.75 -440.77) rotate(-0.29)"/><path class="cls-55" d="M3031.53,1764.71s27.43,19.91,10.09,54-30.29,33.31-30.34,18.47,0-15.08-7.87-31.63-11.92-44.26-11.92-44.26S3002.57,1750.1,3031.53,1764.71Z" transform="translate(-436.28 -455)"/><path class="cls-56" d="M2289.26,1882.72s-50.11,36.26-18.1,79.66,49,15.8,45.65-4.84-3.16-24.37,4-49.22,9.69-38.72,9.69-38.72S2332,1858.45,2289.26,1882.72Z" transform="translate(-436.28 -455)"/><circle class="cls-57" cx="1366.71" cy="444.46" r="155.62"/><path class="cls-58" d="M2416.72,1003.84a18.83,18.83,0,0,0,.77-3.54c-9.69-17.61-31.89-19.33-48.74-13,4-32.71-2.22-69.27-31-90-28.27-20.4-70.47-18.61-96.92,4.1-23.27-65.07-82-96.26-146.25-79.18-32.16,8.56-60,20.54-82.47,46.35-4.21,4.84-41.94,67.89-31.71,70.31-22.85-5.39-40.89-24.55-64-28.49-29.93-5.09-112.35,55.87-100.46,90.67,14,40.93,167.8,4.46,201.86,8.58,24.57,3,48.1,11.36,71.93,18.05a540.43,540.43,0,0,0,295.75-1.51C2398.27,1022.42,2412.89,1016,2416.72,1003.84Z" transform="translate(-436.28 -455)"/><path class="cls-7" d="M2542.46,900.86c13.88-13.42,85.52,7.27,93.21,26.64,16.68-40.75,46.32-33.86,87.23-52.29-50,36.77-70.78,63.74-82.1,101.72C2615.87,929.64,2593.77,915,2542.46,900.86Z" transform="translate(-436.28 -455)"/><path class="cls-7" d="M2687.47,1083.53c13.88-13.41,85.52,7.27,93.22,26.64,16.67-40.75,46.31-33.86,87.22-52.29-50,36.77-70.78,63.74-82.09,101.73C2760.88,1112.31,2738.78,1097.64,2687.47,1083.53Z" transform="translate(-436.28 -455)"/></g></svg>