<!DOCTYPE svg PUBLIC "-//W3C//DTD SVG 1.1//EN" "http://www.w3.org/Graphics/SVG/1.1/DTD/svg11.dtd">
<!-- Uploaded to: SVG Repo, www.svgrepo.com, Transformed by: SVG Repo Mixer Tools -->
<svg width="800px" height="800px" viewBox="-3.04 -3.04 22.08 22.08" xmlns="http://www.w3.org/2000/svg" fill="#ffffff" stroke="#ffffff" transform="rotate(90)matrix(1, 0, 0, 1, 0, 0)" stroke-width="0.00016">
<g id="SVGRepo_bgCarrier" stroke-width="0" transform="translate(0.7999999999999998,0.7999999999999998), scale(0.9)">
<path transform="translate(-3.04, -3.04), scale(1.38)" fill="#00a1e6" d="M9.166.33a2.25 2.25 0 00-2.332 0l-5.25 3.182A2.25 2.25 0 00.5 5.436v5.128a2.25 2.25 0 001.084 1.924l5.25 3.182a2.25 2.25 0 002.332 0l5.25-3.182a2.25 2.25 0 001.084-1.924V5.436a2.25 2.25 0 00-1.084-1.924L9.166.33z" strokewidth="0"/>
</g>
<g id="SVGRepo_tracerCarrier" stroke-linecap="round" stroke-linejoin="round" stroke="#CCCCCC" stroke-width="0.096"/>
<g id="SVGRepo_iconCarrier"> <path d="m 7.5 0.5 c -0.277344 0 -0.5 0.222656 -0.5 0.5 v 1.53125 l -1.253906 -0.714844 c -0.238282 -0.136718 -0.542969 -0.054687 -0.679688 0.183594 c -0.136718 0.242188 -0.054687 0.546875 0.183594 0.683594 l 1.75 1 v 3.449218 l -2.988281 -1.726562 l 0.007812 -2.011719 c 0 -0.273437 -0.222656 -0.5 -0.496093 -0.5 c -0.277344 0 -0.5 0.222657 -0.5 0.496094 l -0.007813 1.441406 l -1.328125 -0.765625 c -0.113281 -0.066406 -0.25 -0.085937 -0.378906 -0.050781 s -0.238282 0.121094 -0.304688 0.234375 s -0.085937 0.25 -0.050781 0.378906 s 0.121094 0.238282 0.234375 0.304688 l 1.328125 0.765625 l -1.246094 0.726562 c -0.238281 0.136719 -0.320312 0.445313 -0.179687 0.683594 c 0.136718 0.238281 0.441406 0.320313 0.683594 0.179687 l 1.738281 -1.015624 l 2.988281 1.726562 l -2.988281 1.726562 l -1.738281 -1.015624 c -0.242188 -0.140626 -0.546876 -0.058594 -0.683594 0.183593 c -0.140625 0.238281 -0.058594 0.542969 0.179687 0.679688 l 1.246094 0.726562 l -1.328125 0.765625 c -0.113281 0.066406 -0.199219 0.175782 -0.234375 0.304688 s -0.015625 0.265625 0.050781 0.378906 h 0.003906 c 0.136719 0.238281 0.441407 0.320312 0.679688 0.183594 l 1.328125 -0.765625 l 0.007813 1.441406 c 0 0.273437 0.222656 0.5 0.5 0.496094 c 0.273437 0 0.496093 -0.222657 0.496093 -0.5 l -0.007812 -2.011719 l 2.988281 -1.726562 v 3.5 l -1.746094 0.988281 c -0.117187 0.0625 -0.199218 0.171875 -0.234375 0.300781 c -0.039062 0.125 -0.019531 0.261719 0.046875 0.378906 c 0.0625 0.117188 0.171875 0.199219 0.300782 0.234375 c 0.125 0.039063 0.261718 0.019531 0.378906 -0.042969 l 1.253906 -0.710937 v 1.484375 c 0 0.277344 0.222656 0.5 0.5 0.5 s 0.5 -0.222656 0.5 -0.5 v -1.484375 l 1.253906 0.710937 c 0.117188 0.0625 0.253906 0.082032 0.378906 0.042969 c 0.128907 -0.035156 0.238282 -0.117187 0.304688 -0.234375 c 0.0625 -0.117187 0.082031 -0.253906 0.042969 -0.378906 c -0.035157 -0.128906 -0.117188 -0.238281 -0.234375 -0.300781 l -1.746094 -0.988281 v -3.5 l 3.03125 1.75 l -0.015625 2.007812 c -0.003906 0.273438 0.21875 0.5 0.492187 0.5 c 0.132813 0.003906 0.261719 -0.046875 0.355469 -0.140625 s 0.148438 -0.21875 0.152344 -0.351563 l 0.011719 -1.441406 l 1.285156 0.742188 c 0.238281 0.136718 0.542969 0.054687 0.683594 -0.183594 c 0.136718 -0.238281 0.054687 -0.546875 -0.183594 -0.683594 l -1.285156 -0.742187 l 1.242187 -0.730469 c 0.113281 -0.066406 0.195313 -0.175781 0.226563 -0.304688 c 0.035156 -0.128906 0.015625 -0.265624 -0.050782 -0.382812 c -0.140624 -0.234375 -0.449218 -0.3125 -0.683593 -0.175781 l -1.730469 1.019531 l -3.03125 -1.75 l 3.03125 -1.75 l 1.730469 1.019531 c 0.234375 0.140625 0.542969 0.058594 0.683593 -0.175781 c 0.066407 -0.117188 0.085938 -0.253906 0.050782 -0.382812 c -0.03125 -0.128907 -0.113282 -0.238282 -0.226563 -0.304688 l -1.242187 -0.730469 l 1.285156 -0.742187 c 0.238281 -0.136719 0.320312 -0.445313 0.183594 -0.683594 c -0.140625 -0.238281 -0.445313 -0.320312 -0.683594 -0.183594 l -1.285156 0.742188 l -0.011719 -1.441406 c -0.003906 -0.132813 -0.058594 -0.257813 -0.152344 -0.351563 s -0.222656 -0.144531 -0.355469 -0.140625 c -0.277343 0 -0.496093 0.226562 -0.492187 0.503906 l 0.015625 2.003906 l -3.03125 1.75 v -3.449218 l 1.75 -1 c 0.238281 -0.136719 0.320312 -0.441406 0.183594 -0.683594 c -0.136719 -0.238281 -0.441406 -0.320312 -0.679688 -0.183594 l -1.253906 0.714844 v -1.53125 c 0 -0.277344 -0.222656 -0.5 -0.5 -0.5 z m 0 0" fill="#ffffff"/> </g>
</svg>