<svg id="Calque_1" data-name="Calque 1" xmlns="http://www.w3.org/2000/svg" viewBox="0 0 451.91 147.83"><defs><style>.cls-1{fill:#e94e1b;stroke-width:2.55px;}.cls-1,.cls-2{stroke:#1d1d1b;stroke-miterlimit:10;}.cls-2,.cls-4{fill:#e6332a;}.cls-2{stroke-width:2.39px;}.cls-3{fill:#1d1d1b;}.cls-5{fill:#fff;}</style></defs><path class="cls-1" d="M390.83,147.17" transform="translate(-80.62 -187.53)"/><path class="cls-2" d="M400.27,212" transform="translate(-80.62 -187.53)"/><path class="cls-2" d="M401.1,187.53" transform="translate(-80.62 -187.53)"/><path class="cls-3" d="M288.53,246.87v78.39a5.74,5.74,0,0,0,1.81,4.57c1.21,1.06,3.38,1.94,6.49,2.64v2.7H245.46v-2.7c3-.57,5.16-1.41,6.42-2.5a5.81,5.81,0,0,0,1.88-4.62V246.87H211a11.67,11.67,0,0,0-6.29,1.38,9.38,9.38,0,0,0-3.44,4.79h-3.5V221.16h3.5a8.9,8.9,0,0,0,3.31,4.77,11.6,11.6,0,0,0,6.3,1.4h120.5a11.94,11.94,0,0,0,6.3-1.35,9.33,9.33,0,0,0,3.44-4.82h3.5V253h-3.5a9.44,9.44,0,0,0-3.44-4.79,11.72,11.72,0,0,0-6.29-1.38Z" transform="translate(-80.62 -187.53)"/><path class="cls-3" d="M90.05,325.86v6.87a1.08,1.08,0,0,0,.4.91,3.53,3.53,0,0,0,1.42.53v.54H80.62v-.54a3.22,3.22,0,0,0,1.4-.5,1.11,1.11,0,0,0,.42-.92V315.13a1.1,1.1,0,0,0-.4-.91,3.78,3.78,0,0,0-1.42-.52v-.54h20.85a52.7,52.7,0,0,1,6.2.28,14.54,14.54,0,0,1,3.81,1,5.15,5.15,0,0,1,3.44,5,4.7,4.7,0,0,1-2.12,4.08c-1.41,1-3.69,1.69-6.84,2.13l6,5.68a15.43,15.43,0,0,0,2.63,2.14,5.69,5.69,0,0,0,2.23.72v.54H103.46v-.54c1-.18,1.48-.47,1.48-.86s-.3-.71-.91-1.29l-6.36-6.16Zm0-3.9h11.48a14.12,14.12,0,0,0,3.87-.39,2.08,2.08,0,0,0,1.76-2.06,1.91,1.91,0,0,0-1.24-1.9,12.25,12.25,0,0,0-4.39-.54H90.05Z" transform="translate(-80.62 -187.53)"/><path class="cls-3" d="M146.13,329.32H131.5l-1.65,2.35a2.62,2.62,0,0,0-.6,1.33c0,.61.61,1,1.82,1.17v.54H119.38v-.54a3.9,3.9,0,0,0,1.6-.44,5.3,5.3,0,0,0,1.24-1.29l11.62-15.93a2.8,2.8,0,0,0,.65-1.58q0-.78-1.59-1.23v-.54h12.36v.54c-1,.29-1.56.72-1.56,1.31a2.83,2.83,0,0,0,.71,1.56L156.46,332a7.94,7.94,0,0,0,1.56,1.63,4.38,4.38,0,0,0,1.74.52v.54h-13v-.54c1.23-.14,1.84-.53,1.84-1.17a2.6,2.6,0,0,0-.71-1.47Zm-2.29-3-5.21-6.93-5,6.93Z" transform="translate(-80.62 -187.53)"/><path class="cls-3" d="M171.15,320.51v12.22a1.12,1.12,0,0,0,.41.92,3.44,3.44,0,0,0,1.41.52v.54H162.4v-.54a3.33,3.33,0,0,0,1.41-.5,1.13,1.13,0,0,0,.41-.92V315.13a1.08,1.08,0,0,0-.4-.91,3.78,3.78,0,0,0-1.42-.52v-.54h12.22v.54c-.83.14-1.25.39-1.25.75s.31.67.91,1.08L191.36,327V315.13a1.12,1.12,0,0,0-.4-.92,3.48,3.48,0,0,0-1.42-.51v-.54h10.57v.54a3.42,3.42,0,0,0-1.42.51,1.1,1.1,0,0,0-.4.92v17.6a1.08,1.08,0,0,0,.4.91,3.53,3.53,0,0,0,1.42.53v.54h-11.4v-.54c.83-.11,1.25-.35,1.25-.71a.77.77,0,0,0-.34-.55c-.23-.19-.75-.57-1.56-1.12Z" transform="translate(-80.62 -187.53)"/><path class="cls-3" d="M236.28,315.11l-3.83,5-.69-.25a1.12,1.12,0,0,0-.59-1,15.31,15.31,0,0,0-4.78-1.62,32.5,32.5,0,0,0-6.39-.63,20.54,20.54,0,0,0-4.89.52c-2,.5-3.07,1.22-3.07,2.17,0,.63.5,1.07,1.48,1.34a33.9,33.9,0,0,0,5.71.62l4.49.23a29.44,29.44,0,0,1,8.95,1.54,8,8,0,0,1,2.82,1.85,4.58,4.58,0,0,1,1.39,3.25q0,3.28-4.38,5.19-4.17,1.83-11.31,1.83a47.14,47.14,0,0,1-13.89-2.06,2.8,2.8,0,0,0-.77-.13,1.48,1.48,0,0,0-1.05.46l-.71-.19L208,328l.71.19v.15a1,1,0,0,0,.56.85,16.13,16.13,0,0,0,4.92,1.47,38.86,38.86,0,0,0,6.91.63,24.68,24.68,0,0,0,5.4-.54c2-.44,3-1.14,3-2.12,0-.78-.68-1.33-2.05-1.63a34.49,34.49,0,0,0-4.91-.52l-4.46-.25q-3.62-.19-5.52-.5a14.75,14.75,0,0,1-3.32-.91,6.87,6.87,0,0,1-2.84-2.09,4.7,4.7,0,0,1-1-2.91q0-3.54,4.49-5.4A26.52,26.52,0,0,1,220,312.7a36.51,36.51,0,0,1,6.1.49,53.45,53.45,0,0,1,6.75,1.73,6.55,6.55,0,0,0,1.61.36,2.45,2.45,0,0,0,1.17-.42Z" transform="translate(-80.62 -187.53)"/><path class="cls-4" d="M298,204.18l42.49-16.65,3,2.21q-2.91,2.34-2.9,3.69,0,1.65,6.47,7.6,13.93,13.16,19.39,23.27A49.56,49.56,0,0,1,372,247.67q.27,26.5-22.19,43.4-12.86,9.57-32.31,15.31a166.36,166.36,0,0,1-45.69,6.32q-34,.24-60.19-10.61-40.9-17-41.26-52.82a50.35,50.35,0,0,1,5.11-23.59q5.27-10.34,18.94-23.59c4.22-4,6.32-6.59,6.31-7.68,0-.9-1-2.13-3-3.66l3.08-2.25,42.46,16.06-2.72,2.14c-1.38,0-2.24-.11-2.59-.17-1-.06-1.77-.09-2.23-.08q-8.41.06-18.95,13.19-10,12.45-9.89,25,.18,17.61,16.82,28.91,18.72,12.93,47.82,12.72,29.28-.19,47.74-13.39,16.25-11.62,16.07-29.13-.13-13.74-12.53-27.29-9.76-10.56-17-10.52c-.23,0-1.84.11-4.83.32Z" transform="translate(-80.62 -187.53)"/><path class="cls-3" d="M319.08,314a28.61,28.61,0,0,1,12.66,2.49q6,3,6.05,8.37,0,5-6.05,8a33.12,33.12,0,0,1-25.2,0q-6.09-3-6.08-8.21t6.08-8.2A29,29,0,0,1,319.08,314Zm0,3.88a14.41,14.41,0,0,0-8,2,5.4,5.4,0,0,0,0,9.55,16.77,16.77,0,0,0,16.07,0,5.51,5.51,0,0,0,2.88-4.67,5.6,5.6,0,0,0-2.88-4.88A15,15,0,0,0,319.11,317.85Z" transform="translate(-80.62 -187.53)"/><path class="cls-3" d="M351.41,321.4V333a1,1,0,0,0,.41.88,3.52,3.52,0,0,0,1.4.49v.51H342.65v-.51a3.25,3.25,0,0,0,1.41-.48,1,1,0,0,0,.41-.88V316.28a1,1,0,0,0-.4-.87,3.72,3.72,0,0,0-1.42-.49v-.51h12.23v.51c-.84.13-1.25.37-1.25.71s.3.64.91,1l17.07,10.92v-11.3a1,1,0,0,0-.4-.87,3.32,3.32,0,0,0-1.42-.49v-.51h10.57v.51a3.37,3.37,0,0,0-1.42.49,1,1,0,0,0-.4.86V333a1.05,1.05,0,0,0,.4.87,3.65,3.65,0,0,0,1.42.5v.51H369v-.51c.84-.11,1.25-.33,1.25-.67a.72.72,0,0,0-.34-.53c-.22-.18-.75-.54-1.56-1.07Z" transform="translate(-80.62 -187.53)"/><path class="cls-3" d="M395.37,326.2V333a1,1,0,0,0,.39.87,3.65,3.65,0,0,0,1.42.5v.51H385.93v-.51a3.3,3.3,0,0,0,1.41-.48,1,1,0,0,0,.41-.88V316.28a1,1,0,0,0-.4-.87,3.78,3.78,0,0,0-1.42-.49v-.51h28.53a2.94,2.94,0,0,0,1.38-.26,1.82,1.82,0,0,0,.75-.92h.77v6.07h-.77a1.83,1.83,0,0,0-.75-.91,2.82,2.82,0,0,0-1.38-.26H395.37v4.5h12a2.86,2.86,0,0,0,1.36-.25,2.06,2.06,0,0,0,.77-.92h.77v5.92h-.77a1.86,1.86,0,0,0-.75-.92,3,3,0,0,0-1.38-.26Z" transform="translate(-80.62 -187.53)"/><path class="cls-3" d="M438.86,314a28.54,28.54,0,0,1,12.65,2.49q6.06,3,6.06,8.37,0,5-6.06,8a33.1,33.1,0,0,1-25.19,0q-6.09-3-6.09-8.21t6.09-8.2A29,29,0,0,1,438.86,314Zm0,3.88a14.44,14.44,0,0,0-8,2,5.41,5.41,0,0,0,0,9.55,16.79,16.79,0,0,0,16.08,0,5.51,5.51,0,0,0,2.87-4.67,5.61,5.61,0,0,0-2.87-4.88A15,15,0,0,0,438.89,317.85Z" transform="translate(-80.62 -187.53)"/><path class="cls-3" d="M471.86,326.5V333a1,1,0,0,0,.4.87,3.65,3.65,0,0,0,1.42.5v.51H462.43v-.51a3.25,3.25,0,0,0,1.4-.48,1,1,0,0,0,.42-.88V316.28a1,1,0,0,0-.4-.87,3.85,3.85,0,0,0-1.42-.49v-.51h20.86a55.79,55.79,0,0,1,6.19.26,15,15,0,0,1,3.81,1c2.29,1,3.44,2.54,3.44,4.73a4.42,4.42,0,0,1-2.12,3.89c-1.41.94-3.69,1.61-6.83,2l6,5.41a15.09,15.09,0,0,0,2.63,2,6.07,6.07,0,0,0,2.23.69v.51H485.28v-.51c1-.17,1.48-.45,1.48-.82s-.31-.68-.92-1.23l-6.35-5.86Zm0-3.72h11.48a14.65,14.65,0,0,0,3.87-.37c1.17-.33,1.76-1,1.76-2a1.81,1.81,0,0,0-1.24-1.81,12.89,12.89,0,0,0-4.39-.51H471.86Z" transform="translate(-80.62 -187.53)"/><path class="cls-3" d="M520.26,318.13V333a1,1,0,0,0,.39.87,3.65,3.65,0,0,0,1.42.5v.51H510.82v-.51a3.3,3.3,0,0,0,1.41-.48,1,1,0,0,0,.41-.88V318.13h-9.38a2.87,2.87,0,0,0-1.38.26,1.83,1.83,0,0,0-.75.91h-.77v-6.07h.77a1.7,1.7,0,0,0,.73.91,2.81,2.81,0,0,0,1.38.27h26.39a2.94,2.94,0,0,0,1.38-.26,1.82,1.82,0,0,0,.75-.92h.77v6.07h-.77a1.79,1.79,0,0,0-.75-.91,2.82,2.82,0,0,0-1.38-.26Z" transform="translate(-80.62 -187.53)"/><ellipse class="cls-3" cx="190.53" cy="53.87" rx="43.24" ry="36.77"/><ellipse class="cls-5" cx="190.53" cy="52.16" rx="23.85" ry="22.14"/></svg>