<svg id="Calque_1" data-name="Calque 1" xmlns="http://www.w3.org/2000/svg" viewBox="0 0 53.78 37.01"><defs><style>.cls-1,.cls-3{fill:#fff;}.cls-1{stroke:#000;stroke-miterlimit:10;stroke-width:0.25px;}.cls-2{fill:#211715;}</style></defs><path class="cls-1" d="M54,57.94c0,.07,0,.1-.07.1l-1-.08c0,.86,0,1.46,0,1.79s0,1,0,1.8,0,1.41,0,1.8a.19.19,0,0,1,0,.13l-.09,0a3.17,3.17,0,0,1-.61,0,3.08,3.08,0,0,1-.63,0c-.06,0-.09-.07-.09-.16,0-.4,0-1,0-1.79s0-1.4,0-1.8,0-.85,0-1.76a7.62,7.62,0,0,1-1.1.1s-.06,0-.06-.05,0-.17,0-.39.06-.38.07-.43,0-.32,0-.48,0-.38.08-.38h0a9.7,9.7,0,0,0,1.65.1c.21,0,.59,0,1.15-.09l.45-.05h.08a.58.58,0,0,1,0,.1c0,.09,0,.22,0,.38v.38a2.85,2.85,0,0,0,0,.37C54,57.74,54,57.86,54,57.94Z" transform="translate(-50.22 -26.88)"/><path class="cls-1" d="M58.46,63.45s0,0-.07,0a4.19,4.19,0,0,1-.66,0,4,4,0,0,1-.61,0l-.09,0a.38.38,0,0,1-.05-.11c0-.13-.08-.32-.15-.58s-.23-.84-.42-1.5a.31.31,0,0,0-.28-.22c.06,0-.05,0-.36,0,0,0-.05.09-.05.26s0,.57,0,1,0,.8,0,1c0,.06,0,.09,0,.1h-.09l-.64,0a3.14,3.14,0,0,1-.59,0c-.07,0-.1-.07-.1-.16,0-.37,0-.93,0-1.68s0-1.31,0-1.69c0-1.43,0-2.54-.06-3.34v-.08s0-.09.11-.11a10.28,10.28,0,0,1,1.06-.06c.42,0,.76,0,1,0a1.67,1.67,0,0,1,1.28.52,2.34,2.34,0,0,1,.57,1.7,3.81,3.81,0,0,1-.15,1.18,2.42,2.42,0,0,1-.53.86.19.19,0,0,0-.08.15s.14.42.42,1.27A11.67,11.67,0,0,1,58.46,63.45ZM57,58.9a1.08,1.08,0,0,0-.27-.85,1,1,0,0,0-.67-.19c-.22,0-.34,0-.35.15s0,.45,0,1v.69s0,0,.12.05a2.06,2.06,0,0,0,.44,0C56.76,59.78,57,59.49,57,58.9Z" transform="translate(-50.22 -26.88)"/><path class="cls-1" d="M63.39,63.37c0,.07,0,.11-.08.13a2.54,2.54,0,0,1-.64,0,2.88,2.88,0,0,1-.64,0c-.07,0-.12-.1-.14-.23a2.41,2.41,0,0,0-.19-.78,6,6,0,0,0-.92,0,2.08,2.08,0,0,0-.63,0A2.52,2.52,0,0,0,60,63c0,.29-.09.44-.15.46a3.78,3.78,0,0,1-.79,0c-.35,0-.53,0-.53-.15s.26-1.16.78-3.24c.56-2.24.87-3.47.92-3.69s.06-.19.09-.19a1.74,1.74,0,0,1,.29,0l.29,0,.28,0,.27,0s.08.06.12.17c.11.35.44,1.57,1,3.65S63.39,63.28,63.39,63.37ZM61,58.76c-.05.14-.13.47-.24,1a6.66,6.66,0,0,0-.19.93c0,.06.07.1.21.1h.35c.15,0,.23,0,.25-.08s0,0,0-.07a8.22,8.22,0,0,0-.16-.92A7.44,7.44,0,0,0,61,58.76Z" transform="translate(-50.22 -26.88)"/><path class="cls-1" d="M68.36,56.54q0,.59,0,1.74c0,.77,0,1.35,0,1.74v3.34c0,.1,0,.14-.1.14h-.5l-.27,0-.26,0s-.1-.06-.15-.17c-.17-.32-.54-1.05-1.12-2.18l-.72-1.39-.06-.06a.31.31,0,0,0,0,.11c0,.4,0,1,0,1.77s0,1.37,0,1.76q0,.18-.09.18H63.85c-.07,0-.1,0-.1-.16q0-.54,0-1.65c0-.74,0-1.29,0-1.66s0-1,0-1.74,0-1.36,0-1.74c0-.07,0-.11.14-.11s.3,0,.49,0l.27-.07a1.16,1.16,0,0,1,.28,0s.07.05.12.17l1.29,2.59c.11.23.29.57.52,1,.06.11.11.16.15.16s0-.13,0-.39,0-.89,0-1.61,0-1.25,0-1.6c0-.13,0-.19.08-.19l.62,0,.62,0S68.36,56.44,68.36,56.54Z" transform="translate(-50.22 -26.88)"/><path class="cls-1" d="M71.35,61.17a2.75,2.75,0,0,1-.59,1.76,2.2,2.2,0,0,1-1.26.83h0s-.17-.23-.35-.71a3.53,3.53,0,0,1-.28-.87.07.07,0,0,1,.06-.07,2.8,2.8,0,0,0,.66-.28.92.92,0,0,0,.36-.78,1.49,1.49,0,0,0-.24-.74c-.27-.46-.42-.71-.44-.76A2.81,2.81,0,0,1,69,58.38a2.21,2.21,0,0,1,1.75-2.2h.06s.06,0,.09.13a13.69,13.69,0,0,0,.41,1.33.13.13,0,0,1,0,.06c0,.05,0,.08-.06.08h-.09l-.1,0a.66.66,0,0,0-.44.17.67.67,0,0,0-.22.54,1.63,1.63,0,0,0,.25.76l.46.85A2.78,2.78,0,0,1,71.35,61.17Z" transform="translate(-50.22 -26.88)"/><path d="M76,62.36a.63.63,0,0,1-.07.21,1.91,1.91,0,0,1-1.69,1.11,2,2,0,0,1-1.74-1.08A4.88,4.88,0,0,1,71.8,60a5,5,0,0,1,.63-2.61,2,2,0,0,1,1.7-1.13,2,2,0,0,1,1.75,1,.44.44,0,0,1,.07.2,4.05,4.05,0,0,1-.24.71,3.75,3.75,0,0,1-.31.7.08.08,0,0,1-.06,0s-.07-.07-.18-.21a1.9,1.9,0,0,0-.36-.38,1,1,0,0,0-.57-.2.91.91,0,0,0-.81.56,2.72,2.72,0,0,0-.28,1.28,2.8,2.8,0,0,0,.28,1.29.9.9,0,0,0,.81.57,1,1,0,0,0,.57-.2,1.67,1.67,0,0,0,.36-.35.88.88,0,0,1,.17-.19s0,0,.07.05l.3.64A5,5,0,0,1,76,62.36Z" transform="translate(-50.22 -26.88)"/><path d="M81.11,60a4.77,4.77,0,0,1-.69,2.65,2,2,0,0,1-1.77,1.09,2.07,2.07,0,0,1-1.77-1.1A4.76,4.76,0,0,1,76.19,60a4.82,4.82,0,0,1,.69-2.65,2,2,0,0,1,3.54,0A4.84,4.84,0,0,1,81.11,60Zm-1.31,0a2.47,2.47,0,0,0-.31-1.29,1,1,0,0,0-.84-.56,1,1,0,0,0-.82.58A2.46,2.46,0,0,0,77.5,60a2.42,2.42,0,0,0,.31,1.29.94.94,0,0,0,.84.55,1,1,0,0,0,.83-.58A2.49,2.49,0,0,0,79.8,59.94Z" transform="translate(-50.22 -26.88)"/><path d="M86.23,56.54q0,.59,0,1.74t0,1.74v3.34c0,.1,0,.14-.1.14h-.5l-.27,0-.27,0s-.09-.06-.15-.17l-1.11-2.18L83,59.74a.13.13,0,0,0-.05-.06.18.18,0,0,0,0,.11c0,.4,0,1,0,1.77s0,1.37,0,1.76q0,.18-.09.18h-1.2c-.06,0-.1,0-.1-.16,0-.36,0-.91,0-1.65s0-1.29,0-1.66,0-1,0-1.74,0-1.36,0-1.74c0-.07,0-.11.13-.11s.3,0,.5,0l.27-.07a1,1,0,0,1,.27,0s.07.05.13.17l1.28,2.59.52,1c.06.11.11.16.15.16s.05-.13.05-.39,0-.89,0-1.61,0-1.25,0-1.6c0-.13,0-.19.07-.19l.63,0,.62,0S86.23,56.44,86.23,56.54Z" transform="translate(-50.22 -26.88)"/><path d="M90.44,58s0,.06-.07.06-.44,0-.79-.07S89,58,88.8,58a1.15,1.15,0,0,0-.39,0c-.09.06-.13.22-.13.49s.06.5.17.54a.51.51,0,0,0,.21,0c.16,0,.39,0,.71,0l.71,0c.08,0,.11.3.11.9a7,7,0,0,1,0,.9c0,.06,0,.09-.1.09l-.21,0a9.92,9.92,0,0,0-1.12,0h-.27a.21.21,0,0,0-.18.22c0,.48,0,1,0,1.65s0,.82,0,.76-.07.14-.22.15h-.31A3.32,3.32,0,0,1,87,63.5a.16.16,0,0,1-.1-.16c0-.37,0-.94,0-1.69s0-1.31,0-1.69,0-1,0-1.68q-.06-1.58-.06-1.68v-.07c0-.08,0-.12.11-.12h.77l.77,0c.19,0,.46,0,.83-.06s.65-.06.83-.06.18.07.19.2,0,.37,0,.66c0,.07,0,.22,0,.43S90.44,57.94,90.44,58Z" transform="translate(-50.22 -26.88)"/><path d="M95.63,60a4.77,4.77,0,0,1-.69,2.65,2,2,0,0,1-1.77,1.09,2.07,2.07,0,0,1-1.77-1.1A4.84,4.84,0,0,1,90.72,60a4.9,4.9,0,0,1,.68-2.65,2,2,0,0,1,3.54,0A4.84,4.84,0,0,1,95.63,60Zm-1.31,0A2.47,2.47,0,0,0,94,58.65a1,1,0,0,0-.84-.56,1,1,0,0,0-.82.58A2.46,2.46,0,0,0,92,60a2.42,2.42,0,0,0,.31,1.29,1,1,0,0,0,.84.55,1,1,0,0,0,.83-.58A2.4,2.4,0,0,0,94.32,59.94Z" transform="translate(-50.22 -26.88)"/><path d="M100.25,63.45s0,0-.07,0a3.94,3.94,0,0,1-.65,0,4.09,4.09,0,0,1-.62,0l-.08,0s0,0,0-.11-.09-.32-.15-.58-.23-.84-.42-1.5a.33.33,0,0,0-.29-.22c.07,0,0,0-.36,0,0,0,0,.09,0,.26s0,.57,0,1,0,.8,0,1c0,.06,0,.09,0,.1h-.1l-.63,0a3.28,3.28,0,0,1-.6,0,.15.15,0,0,1-.1-.16c0-.37,0-.93,0-1.68s0-1.31,0-1.69c0-1.43,0-2.54-.07-3.34v-.08s0-.09.11-.11a9.71,9.71,0,0,1,1-.06c.42,0,.76,0,1,0a1.68,1.68,0,0,1,1.28.52,2.39,2.39,0,0,1,.56,1.7,4.18,4.18,0,0,1-.14,1.18,2.46,2.46,0,0,1-.54.86.22.22,0,0,0-.08.15s.14.42.42,1.27A11.67,11.67,0,0,1,100.25,63.45ZM98.81,58.9a1.08,1.08,0,0,0-.28-.85,1,1,0,0,0-.67-.19c-.22,0-.33,0-.35.15s0,.45,0,1c0,.08,0,.2,0,.35v.34s0,0,.11.05a2.12,2.12,0,0,0,.44,0C98.55,59.78,98.81,59.49,98.81,58.9Z" transform="translate(-50.22 -26.88)"/><path d="M104,57.94c0,.07,0,.1-.08.1l-1-.08c0,.86,0,1.46,0,1.79s0,1,0,1.8,0,1.41,0,1.8a.19.19,0,0,1,0,.13l-.1,0a4.75,4.75,0,0,1-1.23,0c-.06,0-.09-.07-.09-.16,0-.4,0-1,0-1.79s0-1.4,0-1.8,0-.85,0-1.76a7.62,7.62,0,0,1-1.1.1s-.06,0-.06-.05,0-.17,0-.39a4.18,4.18,0,0,0,.06-.43l0-.48c0-.25,0-.38.08-.38h0a9.7,9.7,0,0,0,1.65.1q.31,0,1.14-.09l.46-.05H104a.58.58,0,0,1,0,.1c0,.09,0,.22,0,.38v.38a2.85,2.85,0,0,0,0,.37C104,57.74,104,57.86,104,57.94Z" transform="translate(-50.22 -26.88)"/><path d="M69.17,39.25a10.68,10.68,0,0,1,9-3.1,9.85,9.85,0,0,1,5.09,2,12.16,12.16,0,0,1,3.57,4.54A13.32,13.32,0,0,1,88,47a1.93,1.93,0,0,0-2-1,1.6,1.6,0,0,0-.83.54,7.92,7.92,0,0,0-.57-3,8.43,8.43,0,0,0-2.43-3.26,8,8,0,0,0-4.71-1.9,8.2,8.2,0,0,0-6.59,2.45,7.82,7.82,0,0,0-2.41,5.82A1.35,1.35,0,0,0,67,46a1.34,1.34,0,0,0-1,1,10.72,10.72,0,0,1,3.17-7.75Z" transform="translate(-50.22 -26.88)"/><path class="cls-1" d="M78.07,28.83V43.58H75.63V28.83H71.22V27H82.48v1.83Z" transform="translate(-50.22 -26.88)"/><path class="cls-2" d="M86.61,47.73a2.16,2.16,0,0,0-2,2.43c0,1.91,1.17,2.65,2,2.65s2-.67,2-2.56A2.25,2.25,0,0,0,86.61,47.73Z" transform="translate(-50.22 -26.88)"/><path class="cls-3" d="M86.63,49.37c-.4,0-.71.33-.71.86s.41.93.72.93.72-.23.72-.9A.79.79,0,0,0,86.63,49.37Z" transform="translate(-50.22 -26.88)"/><path class="cls-2" d="M67.67,47.73a2.15,2.15,0,0,0-2,2.43c0,1.91,1.16,2.65,2,2.65s2-.67,2-2.56A2.25,2.25,0,0,0,67.67,47.73Z" transform="translate(-50.22 -26.88)"/><path class="cls-3" d="M67.69,49.37a.76.76,0,0,0-.71.86c0,.67.41.93.72.93s.72-.23.72-.9A.79.79,0,0,0,67.69,49.37Z" transform="translate(-50.22 -26.88)"/><path class="cls-3" d="M67,47" transform="translate(-50.22 -26.88)"/></svg>