<svg id="Calque_1" data-name="Calque 1" xmlns="http://www.w3.org/2000/svg" viewBox="0 0 323.19 59.74"><defs><style>.cls-1,.cls-2{fill:#e94e1b;}.cls-1,.cls-4{stroke:#1d1d1b;stroke-miterlimit:10;}.cls-1{stroke-width:1.97px;}.cls-3{fill:#1d1d1b;}.cls-4{fill:#e6332a;stroke-width:2.3px;}</style></defs><path class="cls-1" d="M377.3,145.07" transform="translate(-134.28 -395.16)"/><path class="cls-2" d="M147.66,405.79l-4,34.18c-.23,1.9-.34,3.14-.34,3.73a8.1,8.1,0,0,0,.23,1.82,5.31,5.31,0,0,1-3.26,1.54c-.61,0-.92-.42-.92-1.27,0-.43.12-1.68.35-3.76l4.2-36.24h-2.45a17.44,17.44,0,0,0-7.21,1.36c.39-2.69.91-4.36,1.57-5s2.1-1,4.32-1H152.1q4.82,0,6.37-6a9.33,9.33,0,0,1,.61,2.88,7.85,7.85,0,0,1-2.83,6.32q-1.71,1.42-6.48,1.43Z" transform="translate(-134.28 -395.16)"/><path class="cls-2" d="M157.32,417.14a7.44,7.44,0,0,1-.72-3.39q0-5,5-9.39A15.91,15.91,0,0,1,172.2,400q8.75,0,8.75,9.57a15.56,15.56,0,0,1-1.88,7.89,24.2,24.2,0,0,1-6.55,6.77q4.22,16.5,7.26,16.5,1.6,0,3.44-3.87a10.25,10.25,0,0,1,.09,1.06,9.83,9.83,0,0,1-1.75,5.28q-1.74,2.74-3.37,2.74-4.12,0-8.79-19.32a4,4,0,0,1-1.69.46,1.12,1.12,0,0,1-.69-.25c.43-3.81,1.54-5.72,3.31-5.72a3.29,3.29,0,0,1,1.31.36q5.78-3.33,5.78-11.05a6.72,6.72,0,0,0-1.65-4.68,5.41,5.41,0,0,0-4.2-1.83c-2.9,0-5.67,1.24-8.34,3.71A22.05,22.05,0,0,0,157.32,417.14Zm6.35,31.74a5.27,5.27,0,0,1-3.26,1.54c-.61,0-.92-.42-.92-1.27,0-.44.13-1.71.41-3.79l3.38-29.31a35.32,35.32,0,0,0,.3-3.66,4.45,4.45,0,0,0-.42-1.94,7.83,7.83,0,0,1,3.26-1.51c.74,0,1.11.72,1.11,2.18,0,.34-.2,2.11-.58,5.3l-3.12,26.92a37.49,37.49,0,0,0-.34,4A8.66,8.66,0,0,0,163.67,448.88Z" transform="translate(-134.28 -395.16)"/><path class="cls-2" d="M192.1,431l-.35,1.15q-2.22,7.13-2.22,11a5.27,5.27,0,0,0,.51,2.25c-.28.16-.91.55-1.9,1.18a2.52,2.52,0,0,1-1.31.42c-.82,0-1.23-.67-1.23-2,0-2.81,1-7.08,3.05-12.84l.55-1.54h-.9a6.15,6.15,0,0,0-4.48,1.54q.83-5.12,4.46-5.11l2.19.09.47-1.22q2.77-7.14,8.46-19.22a23.2,23.2,0,0,1,2.88-5.09,8.67,8.67,0,0,1,3.68-1.82q-.51,5.46-.51,10.15a193.4,193.4,0,0,0,1.68,25.22q.92,7,2.8,9.05c-1.11,1.88-2.05,2.82-2.84,2.82q-2.79,0-4.3-16.41a32.13,32.13,0,0,1-5.87.54Zm1.27-3.57,3.57.15a28,28,0,0,0,5.58-.42q-.81-10.63-.81-17.63l0-2.27q-.58,1.27-2.61,5.51a95.25,95.25,0,0,0-5.37,13.48Z" transform="translate(-134.28 -395.16)"/><path class="cls-2" d="M221,412.39l-2.24,19.38a77.72,77.72,0,0,0-.64,8.33q0,4.2,1.4,5.9a5.43,5.43,0,0,1-2.93,1.06q-2,0-2-3.12t2.1-18.44l2.63-19.32-.51-2.36q-1.05-4.81-2.61-5.78c1.81-1.44,3-2.15,3.42-2.15q1.19,0,1.77,1.89t5.19,20.57q5.18,21,6.81,21,1.22,0,2.37-8.92A142.61,142.61,0,0,0,237,412.09q0-7.57-2.09-10C236,400.71,237.07,400,238,400q2.08,0,2.09,5.88,0,4.67-.94,14.29t-2,16.2q-1.79,10.69-4,10.69-1.91,0-4.08-5.77a208.68,208.68,0,0,1-5.81-20.39q-1.18-4.72-1.6-6.33Z" transform="translate(-134.28 -395.16)"/><path class="cls-2" d="M244.17,435.37a16,16,0,0,0,1.57,7.75,4.85,4.85,0,0,0,4.37,2.82,5.23,5.23,0,0,0,4.28-2.54,10,10,0,0,0,1.82-6q0-3.66-4-10.08l-1.94-3.09q-3.72-5.94-3.72-10.93a16.24,16.24,0,0,1,2.64-9.57,7.94,7.94,0,0,1,6.74-3.76,5.21,5.21,0,0,1,3.5,1.14,3.67,3.67,0,0,1,1.34,2.95,11.22,11.22,0,0,1-.95,4.15q-1.53-5.08-5-5.09a4.26,4.26,0,0,0-3.62,2.29,10.24,10.24,0,0,0-1.47,5.65,9.49,9.49,0,0,0,.48,3.42,48,48,0,0,0,3,5.15l1.59,2.51q4.33,6.93,4.33,12.45a18.15,18.15,0,0,1-3,10.64q-3,4.22-7.46,4.22a6.15,6.15,0,0,1-5-2.42,8.93,8.93,0,0,1,.42-11.69Z" transform="translate(-134.28 -395.16)"/><path class="cls-3" d="M285.09,433.45a9.79,9.79,0,0,1,.33,2.15c0,2.63-1.31,5.19-3.92,7.7s-5.3,3.76-8.05,3.76q-4.51,0-7.13-4.51t-2.62-12.36q0-12.37,4.73-21.28t11.3-8.91a6.54,6.54,0,0,1,4.51,1.64,5.18,5.18,0,0,1,1.83,4,9.08,9.08,0,0,1-1.58,4.67q-2.14-7.31-6.05-7.32-4.29,0-7.47,7.64a45.91,45.91,0,0,0-3.2,17.82q0,6.5,1.92,10.29c1.27,2.53,3,3.79,5.17,3.8Q280.42,442.54,285.09,433.45Z" transform="translate(-134.28 -395.16)"/><path class="cls-3" d="M301.46,406.27q2.73-6.27,7.21-6.27c2.54,0,4.65,1.59,6.3,4.77s2.48,7.22,2.48,12.1a41.33,41.33,0,0,1-5.34,20.8q-5.34,9.39-11.83,9.39-4.66,0-7.71-5.31t-3-13.46A31.45,31.45,0,0,1,293,413.05C295.31,408.79,298.13,406.54,301.46,406.27Zm-1.35,3.3q-3.14,1.31-4.95,5.79a29.4,29.4,0,0,0-1.82,11c0,4.86.82,8.88,2.47,12s3.74,4.74,6.29,4.74q4.57,0,8.09-7.45a39.94,39.94,0,0,0,3.51-17.22,23.31,23.31,0,0,0-1.75-9.57q-1.74-3.87-4.29-3.88c-1.73,0-3.22,1.21-4.49,3.62a18.17,18.17,0,0,0-1.9,8.58,20.62,20.62,0,0,0,1,6.48,4.19,4.19,0,0,1-2.58-1.78,9.5,9.5,0,0,1-.65-4.18A32.94,32.94,0,0,1,300.11,409.57Z" transform="translate(-134.28 -395.16)"/><path class="cls-3" d="M327.41,412.39l-2.23,19.38a77.72,77.72,0,0,0-.64,8.33c0,2.8.47,4.77,1.39,5.9a5.4,5.4,0,0,1-2.92,1.06q-2,0-2-3.12t2.1-18.44l2.63-19.32-.51-2.36q-1-4.81-2.61-5.78c1.81-1.44,2.95-2.15,3.42-2.15.78,0,1.38.63,1.77,1.89S330,405.9,333,418.35q5.16,21,6.81,21,1.21,0,2.37-8.92a142.61,142.61,0,0,0,1.15-18.33q0-7.57-2.1-10c1.16-1.41,2.2-2.12,3.12-2.12q2.1,0,2.1,5.88,0,4.67-.94,14.29t-2,16.2q-1.8,10.69-4,10.69-1.9,0-4.08-5.77a208.68,208.68,0,0,1-5.81-20.39q-1.19-4.72-1.6-6.33Z" transform="translate(-134.28 -395.16)"/><path class="cls-3" d="M358.36,426.89l-2.44,20.93c-.22,1.91-.33,3.16-.33,3.72a7.56,7.56,0,0,0,.23,1.82,5.22,5.22,0,0,1-3.26,1.54c-.62,0-.92-.42-.92-1.27,0-.44.11-1.69.35-3.75l2.66-23h-.26A6,6,0,0,0,351,428.2a15.07,15.07,0,0,1,1.52-4.14,2.43,2.43,0,0,1,2.11-.92h.48L357.19,405h-.39a6.93,6.93,0,0,0-6.11,3.6c.45-3.18,1.25-5.32,2.38-6.39.8-.74,3.28-1.12,7.44-1.12h4.63a20.69,20.69,0,0,0,8.62-1.57,11.08,11.08,0,0,1-2.28,4.41,5.25,5.25,0,0,1-3.66,1.1l-1.55,0h-5.39l-2.1,18.11h3.81a10.31,10.31,0,0,0,5.85-1.55c-.56,2.28-1.21,3.74-1.95,4.36s-2.18.94-4.33.94Z" transform="translate(-134.28 -395.16)"/><path class="cls-3" d="M384.18,406.27q2.73-6.27,7.21-6.27,3.81,0,6.3,4.77a26.18,26.18,0,0,1,2.48,12.1,41.33,41.33,0,0,1-5.34,20.8q-5.34,9.39-11.83,9.39-4.67,0-7.71-5.31t-3-13.46a31.45,31.45,0,0,1,3.47-15.24C378,408.79,380.85,406.54,384.18,406.27Zm-1.35,3.3q-3.13,1.31-4.95,5.79a29.2,29.2,0,0,0-1.82,11c0,4.86.82,8.88,2.47,12s3.74,4.74,6.29,4.74q4.57,0,8.09-7.45a39.94,39.94,0,0,0,3.51-17.22,23.31,23.31,0,0,0-1.75-9.57q-1.74-3.87-4.29-3.88c-1.73,0-3.22,1.21-4.49,3.62a18.17,18.17,0,0,0-1.9,8.58,20.62,20.62,0,0,0,1,6.48,4.19,4.19,0,0,1-2.58-1.78,9.5,9.5,0,0,1-.65-4.18A32.94,32.94,0,0,1,382.83,409.57Z" transform="translate(-134.28 -395.16)"/><path class="cls-3" d="M402.84,417.14a7.31,7.31,0,0,1-.73-3.39q0-5,5-9.39A15.87,15.87,0,0,1,417.72,400q8.75,0,8.74,9.57a15.56,15.56,0,0,1-1.88,7.89,24.06,24.06,0,0,1-6.55,6.77q4.22,16.5,7.27,16.5,1.6,0,3.43-3.87a10.25,10.25,0,0,1,.09,1.06,9.89,9.89,0,0,1-1.74,5.28q-1.75,2.74-3.37,2.74-4.12,0-8.8-19.32a4,4,0,0,1-1.69.46,1.12,1.12,0,0,1-.69-.25c.44-3.81,1.54-5.72,3.32-5.72a3.25,3.25,0,0,1,1.3.36q5.79-3.33,5.78-11.05a6.76,6.76,0,0,0-1.64-4.68,5.41,5.41,0,0,0-4.21-1.83q-4.33,0-8.34,3.71A21.94,21.94,0,0,0,402.84,417.14Zm6.34,31.74a5.25,5.25,0,0,1-3.26,1.54c-.61,0-.92-.42-.92-1.27,0-.44.14-1.71.41-3.79l3.38-29.31a35.32,35.32,0,0,0,.3-3.66,4.45,4.45,0,0,0-.42-1.94,7.83,7.83,0,0,1,3.26-1.51c.74,0,1.11.72,1.11,2.18,0,.34-.19,2.11-.58,5.3l-3.12,26.92a39.59,39.59,0,0,0-.33,4A8.53,8.53,0,0,0,409.18,448.88Z" transform="translate(-134.28 -395.16)"/><path class="cls-3" d="M446.05,405.79l-4,34.18c-.22,1.9-.33,3.14-.33,3.73a7.56,7.56,0,0,0,.23,1.82,5.31,5.31,0,0,1-3.27,1.54c-.61,0-.91-.42-.91-1.27,0-.43.12-1.68.35-3.76l4.2-36.24h-2.45a17.44,17.44,0,0,0-7.21,1.36c.38-2.69.91-4.36,1.56-5s2.1-1,4.32-1h11.94q4.81,0,6.36-6a9.4,9.4,0,0,1,.62,2.88,7.85,7.85,0,0,1-2.83,6.32q-1.71,1.42-6.48,1.43Z" transform="translate(-134.28 -395.16)"/><path class="cls-4" d="M407.68,212" transform="translate(-134.28 -395.16)"/><path class="cls-4" d="M408.45,187.53" transform="translate(-134.28 -395.16)"/></svg>